<?xml version="1.0" standalone="no"?>
<!DOCTYPE svg PUBLIC "-//W3C//DTD SVG 1.1//EN" "http://www.w3.org/Graphics/SVG/1.1/DTD/svg11.dtd" >
<svg xmlns="http://www.w3.org/2000/svg">
<metadata>
This is a custom SVG webfont generated by Font Squirrel.
Copyright   : Copyright c 2008 by Process Type Foundry All rights reserved
Designer    : Eric Olson
Foundry     : Process Type Foundry
Foundry URL : httpwwwprocesstypefoundrycom
</metadata>
<defs>
<font id="BryantLGLight" horiz-adv-x="421" >
<font-face units-per-em="2048" ascent="1536" descent="-512" />
<missing-glyph horiz-adv-x="614" />
<glyph unicode=" "  horiz-adv-x="614" />
<glyph unicode="&#x09;" horiz-adv-x="614" />
<glyph unicode="&#xa0;" horiz-adv-x="614" />
<glyph unicode="!" horiz-adv-x="524" d="M215 38.5q0 20.5 13.5 34t34 13.5t33.5 -13.5t13 -34t-13 -33.5t-33.5 -13t-34 13t-13.5 33.5zM233 784v570q0 27 27 26.5t27 -26.5v-570l-8 -446q0 -23 -18.5 -23t-18.5 23z" />
<glyph unicode="&#x22;" horiz-adv-x="759" d="M184 944v412q0 25 24.5 24.5t24.5 -24.5v-412q0 -25 -24.5 -25t-24.5 25zM526 944v412q0 25 24.5 24.5t24.5 -24.5v-412q0 -25 -24.5 -25t-24.5 25z" />
<glyph unicode="#" horiz-adv-x="1398" d="M133 446.5q0 22.5 25 22.5h213l49 446h-211q-23 0 -23 23t27 23h211l45 395q4 25 26.5 24.5t22.5 -24.5l-45 -395h524l45 395q4 25 27 24.5t23 -24.5l-45 -395h210q23 0 23 -23t-25 -23h-213l-49 -446h211q23 0 23 -22.5t-25 -22.5h-215l-45 -416q-4 -25 -26.5 -24.5 t-22.5 24.5l45 416h-524l-45 -416q-4 -25 -27 -24.5t-23 24.5l46 416h-211q-21 0 -21 22.5zM420 469h524l49 446h-524z" />
<glyph unicode="$" horiz-adv-x="1228" d="M160 203q12 18 35 2q219 -139 442 -139q182 0 288.5 73.5t106.5 208.5q0 123 -95 187.5t-319 134.5q-229 72 -335.5 156.5t-106.5 213.5q0 141 112.5 220t307.5 83v216q0 25 24.5 24.5t24.5 -24.5v-218q229 -10 379 -112q16 -12 2 -29q-12 -14 -39 0q-172 98 -379 98 q-184 0 -281.5 -66.5t-97.5 -187.5q0 -123 91.5 -191.5t302.5 -135.5q264 -84 363 -162t99 -207q0 -139 -111.5 -232t-324.5 -96v-215q0 -25 -24.5 -24.5t-24.5 24.5v215q-231 12 -436 152q-18 13 -4 31z" />
<glyph unicode="%" horiz-adv-x="1716" d="M143 1071q0 135 89.5 226.5t228.5 91.5t228 -91.5t89 -226.5t-89 -226t-228 -91t-228.5 91t-89.5 226zM188 1071q0 -121 76 -198.5t197 -77.5t196.5 77.5t75.5 198.5t-75.5 199t-196.5 78t-197 -78t-76 -199zM469 3q0 7 2 13l752 1356q6 10 20 10q12 0 18.5 -9t0.5 -23 l-752 -1356q-6 -10 -21 -10q-8 0 -14 6t-6 13zM948 293q0 135 89 226t228.5 91t228.5 -91t89 -226t-89 -226.5t-228.5 -91.5t-228.5 91.5t-89 226.5zM993 293q0 -121 76 -199t196.5 -78t196.5 78t76 199t-76 198.5t-196.5 77.5t-196.5 -77.5t-76 -198.5z" />
<glyph unicode="&#x26;" horiz-adv-x="1468" d="M184 340q0 147 98.5 251.5t290.5 207.5q-51 74 -77.5 116.5t-53 110.5t-26.5 125q0 111 67.5 174.5t192.5 63.5q119 0 188.5 -66t69.5 -172q0 -201 -295 -369l358 -546q90 125 158 301q6 14 21 14q23 0 22 -21q0 -6 -2 -12q-74 -190 -172 -319q68 -96 115 -138.5 t108 -42.5q55 0 113 25q12 6 20 6q16 0 17 -18q0 -12 -15 -21q-59 -35 -135 -35q-80 0 -132 42t-124 141q-72 -82 -177 -132.5t-224 -50.5q-178 0 -292 103.5t-114 261.5zM238 342q0 -147 103 -234.5t249 -87.5q221 0 375 181l-72 108q-72 109 -166 249t-133 202 q-184 -109 -270 -198t-86 -220zM467 1147q0 -23 4 -45.5t14.5 -49t16.5 -43t25.5 -48t26.5 -43t31.5 -48t30.5 -47.5q125 68 196 153t71 175t-58.5 141t-150.5 51q-96 0 -151.5 -50t-55.5 -146z" />
<glyph unicode="'" horiz-adv-x="417" d="M184 944v412q0 25 24.5 24.5t24.5 -24.5v-412q0 -25 -24.5 -25t-24.5 25z" />
<glyph unicode="(" horiz-adv-x="665" d="M205 552.5q0 233.5 67.5 437.5t223.5 454q6 10 20 10q27 0 27 -24q0 -8 -6 -19q-141 -227 -210 -428t-69 -430t68.5 -430t210.5 -428q6 -10 6 -19q0 -25 -27 -24q-14 0 -20 10q-156 250 -223.5 453.5t-67.5 437z" />
<glyph unicode=")" horiz-adv-x="665" d="M123 -324q0 8 6 19q141 227 210 428t69 430t-69 430t-210 428q-6 10 -6 19q0 25 27 24q14 0 20 -10q156 -250 223.5 -454t67.5 -437.5t-67.5 -437t-223.5 -453.5q-6 -10 -20 -10q-27 -1 -27 24z" />
<glyph unicode="*" horiz-adv-x="831" d="M92 1097.5q0 20.5 21 20.5h268l-133 230q-4 8 -4 14q0 18 20 18q12 0 19 -10l133 -233l133 233q6 10 18 10q20 0 21 -18q0 -6 -4 -14l-133 -230h268q20 0 20 -20.5t-20 -20.5h-268l133 -227q4 -8 4 -14q0 -20 -21 -21q-12 0 -18 10l-133 234l-133 -234q-4 -10 -19 -10 q-20 0 -20 21q0 6 4 14l133 227h-268q-21 0 -21 20.5z" />
<glyph unicode="+" horiz-adv-x="1228" d="M154 661.5q0 24.5 24 24.5h410v410q0 27 26.5 26.5t26.5 -26.5v-410h410q25 0 24.5 -24.5t-24.5 -24.5h-410v-410q0 -27 -26.5 -26.5t-26.5 26.5v410h-410q-24 0 -24 24.5z" />
<glyph unicode="," d="M123 -303q0 8 6 20q63 129 64 320v96q0 25 22.5 25t22.5 -25v-94q0 -201 -68 -346q-8 -16 -23 -17q-24 1 -24 21z" />
<glyph unicode="-" horiz-adv-x="878" d="M164 507.5q0 22.5 22 22.5h506q23 0 23 -22.5t-23 -22.5h-506q-22 0 -22 22.5z" />
<glyph unicode="." horiz-adv-x="462" d="M205 18v113q0 27 26.5 27t26.5 -27v-113q0 -27 -26.5 -27t-26.5 27z" />
<glyph unicode="/" horiz-adv-x="976" d="M184 -195q0 2 4 15l566 1646q6 18 24 19q25 0 25 -25l-4 -16l-566 -1645q-6 -18 -22 -18q-27 -1 -27 24z" />
<glyph unicode="0" horiz-adv-x="1384" d="M143 682q0 285 148.5 496t400.5 211t400.5 -211t148.5 -496t-148.5 -496t-400.5 -211t-400.5 211t-148.5 496zM197 682q0 -270 136 -464.5t359 -194.5t359.5 194.5t136.5 464.5t-136.5 464.5t-359.5 194.5t-359 -194.5t-136 -464.5z" />
<glyph unicode="1" horiz-adv-x="716" d="M57 1235q0 18 19 25l362 114q18 6 27 6q27 0 27 -28v-1342q0 -27 -27 -26.5t-27 26.5v1311l-336 -104q-12 -4 -20 -5q-25 0 -25 23z" />
<glyph unicode="2" horiz-adv-x="1286" d="M164 25q0 225 98 352t344 250q113 57 172.5 89t127 76t98 80.5t52 84t21.5 104.5q0 129 -104.5 205.5t-294.5 76.5q-260 0 -440 -151q-8 -8 -21 -8q-23 0 -22 24q0 10 12 21q190 160 475 160q205 0 326.5 -87.5t121.5 -238.5q0 -145 -104 -238.5t-369 -226.5 q-254 -127 -347 -239.5t-93 -313.5h903q23 0 23 -22.5t-23 -22.5h-932q-8 0 -16 8.5t-8 16.5z" />
<glyph unicode="3" horiz-adv-x="1273" d="M115 168q0 25 26 25q8 0 23 -11q197 -160 444 -159q195 0 322 94t127 258q0 160 -122 256t-314 96h-138q-23 0 -22.5 22.5t22.5 22.5h135q156 0 254.5 83t98.5 206q0 129 -94.5 204.5t-260.5 75.5q-174 0 -327 -94q-10 -6 -21 -6q-25 0 -24 21q0 12 14 22 q164 104 358 105q184 0 296 -88.5t112 -237.5q0 -102 -67.5 -186t-194.5 -125q147 -23 247.5 -124.5t100.5 -252.5q0 -180 -141.5 -290t-360.5 -110q-258 0 -481 170q-12 11 -12 23z" />
<glyph unicode="4" horiz-adv-x="1314" d="M82 430q0 10 8 19l823 917q14 14 25 14q27 0 27 -26v-901h256q23 0 22.5 -22.5t-22.5 -22.5h-256v-398q0 -27 -27 -26.5t-27 26.5v398h-807q-22 -1 -22 22zM156 453h755v839z" />
<glyph unicode="5" horiz-adv-x="1308" d="M150 180q0 25 26 25q10 0 23 -12q182 -174 458 -175q199 0 325 111t126 283q0 170 -118 274.5t-298 104.5q-229 0 -416 -168q-16 -16 -36 -17q-27 0 -23 31l115 704q4 23 28 23h666q23 0 23 -22.5t-23 -22.5h-647l-107 -645q158 162 414 162q215 0 345 -119t130 -305 q0 -180 -135 -309.5t-369 -129.5q-311 0 -499 189q-8 8 -8 18z" />
<glyph unicode="6" horiz-adv-x="1325" d="M174 457q0 309 198.5 573t512.5 354q16 4 24 5q23 0 23 -19q0 -16 -21 -22q-287 -88 -463 -300t-229 -518q41 135 180.5 218t305.5 83q223 0 355 -115.5t132 -303.5q0 -184 -142.5 -310.5t-355.5 -126.5q-244 0 -382 132.5t-138 349.5zM236 408q0 -170 121.5 -279 t336.5 -109q186 0 315.5 113t129.5 277q0 176 -121 276t-313 100q-178 0 -323.5 -104t-145.5 -274z" />
<glyph unicode="7" horiz-adv-x="1085" d="M61 1341.5q0 22.5 23 22.5h913q27 0 27 -21q0 -10 -4 -16q-166 -215 -268.5 -390t-174 -418t-71.5 -509q0 -27 -26.5 -26.5t-26.5 26.5q0 383 131 691.5t374 617.5h-874q-23 0 -23 22.5z" />
<glyph unicode="8" horiz-adv-x="1351" d="M156 371q0 141 104.5 244.5t259.5 138.5q-117 35 -195.5 117.5t-78.5 189.5q0 145 125 236.5t305 91.5t305 -91.5t125 -236.5q0 -106 -79 -189.5t-196 -117.5q156 -35 260.5 -138.5t104.5 -244.5q0 -172 -150.5 -284t-369.5 -112t-369.5 112t-150.5 284zM209 371 q0 -158 138 -254.5t328.5 -96.5t329 96.5t138.5 254.5q0 160 -142.5 259t-324.5 99t-324.5 -99t-142.5 -259zM297 1061q0 -121 111.5 -204t267 -83t267.5 83t112 204q0 123 -105.5 202.5t-273.5 79.5t-273.5 -79.5t-105.5 -202.5z" />
<glyph unicode="9" horiz-adv-x="1318" d="M133 952q0 184 142.5 310.5t355.5 126.5q244 0 382 -132.5t138 -349.5q0 -309 -198.5 -573t-512.5 -354q-16 -4 -24 -5q-23 0 -23 19q0 16 21 22q287 88 463 300t229 518q-41 -135 -180.5 -218.5t-304.5 -83.5q-223 0 -355.5 116t-132.5 304zM186 954q0 -176 121 -276 t314 -100q178 0 323.5 104t145.5 274t-122 278.5t-337 108.5q-186 0 -315.5 -112.5t-129.5 -276.5z" />
<glyph unicode=":" d="M184 18v113q0 27 27 27t27 -27v-113q0 -27 -27 -27t-27 27zM184 627v112q0 27 27 27t27 -27v-112q0 -27 -27 -27t-27 27z" />
<glyph unicode=";" d="M119 -303q0 8 6 20q61 133 61 320v96q0 25 25 25t25 -25v-94q0 -197 -70 -346q-8 -16 -23 -17q-24 1 -24 21zM184 627v112q0 27 27 27t27 -27v-112q0 -27 -27 -27t-27 27z" />
<glyph unicode="&#x3c;" horiz-adv-x="1107" d="M113 662q0 12 18 22l766 442q8 4 14 4q23 0 23 -22q0 -14 -14 -23l-740 -423l740 -422q14 -8 14 -23q0 -23 -23 -22q-6 0 -14 4l-766 442q-18 11 -18 21z" />
<glyph unicode="=" horiz-adv-x="1095" d="M174 495.5q0 24.5 25 24.5h698q25 0 25 -24.5t-25 -24.5h-698q-25 0 -25 24.5zM174 827.5q0 24.5 25 24.5h698q25 0 25 -24.5t-25 -24.5h-698q-25 0 -25 24.5z" />
<glyph unicode="&#x3e;" horiz-adv-x="1107" d="M174 217q0 14 14 23l740 422l-740 423q-14 8 -14 23q0 23 23 22q6 0 14 -4l766 -442q18 -10 18 -22q0 -10 -18 -21l-766 -442q-8 -4 -14 -4q-23 -1 -23 22z" />
<glyph unicode="?" horiz-adv-x="999" d="M123 1243q0 10 12 21q170 125 393 125q174 0 276.5 -77t102.5 -218q0 -92 -50 -169t-167 -177q-137 -119 -169 -174.5t-32 -188.5v-113q0 -27 -26.5 -26.5t-26.5 26.5v107q0 66 9.5 114t19.5 79.5t45 71.5t58.5 61.5t86.5 76.5q109 94 154 159t45 151q0 123 -88 185 t-242 62q-195 0 -360 -112q-8 -6 -19 -6q-8 0 -15 7t-7 15zM416 38.5q0 20.5 13 34t33.5 13.5t34 -13.5t13.5 -34t-13.5 -33.5t-34 -13t-33.5 13t-13 33.5z" />
<glyph unicode="@" horiz-adv-x="1558" d="M143 692q0 299 191.5 498t503.5 199q217 0 328.5 -112t111.5 -310v-574q0 -25 -24.5 -24.5t-24.5 24.5v150q-102 -182 -301 -183q-147 0 -248.5 102.5t-101.5 248t101 247t249 101.5q96 0 180 -50.5t121 -129.5v86q0 379 -391 378q-289 0 -465 -186t-176 -465 q0 -281 198.5 -477.5t540.5 -196.5q258 0 526 105q12 4 17 4q18 0 18 -21q0 -12 -18 -20q-244 -111 -543 -111q-362 0 -577.5 209t-215.5 508zM627 711q0 -129 85 -218.5t216 -89.5q129 0 215 90.5t86 217.5q0 125 -87 215t-214 90q-131 0 -216 -89t-85 -216z" />
<glyph unicode="A" horiz-adv-x="1462" d="M102 12q0 4 4 13l601 1339q8 16 24.5 16t24.5 -16l600 -1339q4 -8 4 -13q0 -29 -27 -28q-18 0 -24 14l-201 451h-756l-198 -451q-6 -14 -25 -14q-27 -1 -27 28zM375 498h712l-356 807z" />
<glyph unicode="B" horiz-adv-x="1341" d="M215 27v1310q0 27 27 27h487q166 0 277.5 -90t111.5 -246q0 -100 -58.5 -183t-170.5 -122q131 -14 230.5 -109.5t99.5 -246.5q0 -154 -115 -260.5t-332 -106.5h-530q-27 0 -27 27zM268 47h500q193 0 295 91t102 231q0 150 -109.5 236.5t-295.5 86.5h-492v-645zM268 739 h475q147 0 234.5 85t87.5 206q0 137 -97.5 212t-240.5 75h-459v-578z" />
<glyph unicode="C" horiz-adv-x="1495" d="M135 682q0 285 189.5 496t484.5 211q182 0 327.5 -82t231.5 -220q4 -8 4 -16q0 -25 -24 -24q-14 0 -23 12q-186 281 -516 280q-274 0 -447.5 -197.5t-173.5 -459.5t173.5 -459.5t447.5 -197.5q330 0 516 280q8 12 23 12q25 0 24 -24q0 -8 -4 -17q-86 -137 -231.5 -219 t-327.5 -82q-295 0 -484.5 211t-189.5 496z" />
<glyph unicode="D" horiz-adv-x="1454" d="M215 27v1310q0 27 27 27h415q297 0 485.5 -199.5t188.5 -482.5t-188.5 -482.5t-485.5 -199.5h-415q-27 0 -27 27zM268 49h379q287 0 459 185.5t172 447.5t-172 447.5t-459 185.5h-379v-1266z" />
<glyph unicode="E" horiz-adv-x="1204" d="M215 27v1310q0 27 27 27h811q25 0 24.5 -24.5t-24.5 -24.5h-785v-565h465q25 0 25 -25t-25 -25h-465v-651h813q25 0 25 -24.5t-25 -24.5h-839q-27 0 -27 27z" />
<glyph unicode="F" horiz-adv-x="1110" d="M215 10v1327q0 27 27 27h802q25 0 25 -24.5t-25 -24.5h-776v-565h457q25 0 25 -25t-25 -25h-457v-690q0 -27 -26.5 -27t-26.5 27z" />
<glyph unicode="G" horiz-adv-x="1533" d="M135 682q0 289 190.5 498t483.5 209q295 0 479 -201q6 -6 6 -19q0 -23 -24 -22q-12 0 -21 8q-176 184 -440 184q-272 0 -446.5 -196.5t-174.5 -460.5q0 -260 170 -459.5t451 -199.5q315 0 506 210v345h-447q-23 0 -22.5 22.5t22.5 22.5h475q23 0 23 -23v-364 q0 -14 -8 -27q-217 -233 -549 -234q-297 0 -485.5 210t-188.5 497z" />
<glyph unicode="H" horiz-adv-x="1505" d="M215 10v1344q0 27 26.5 26.5t26.5 -26.5v-637h969v637q0 27 26.5 26.5t26.5 -26.5v-1344q0 -27 -26.5 -26.5t-26.5 26.5v658h-969v-658q0 -27 -26.5 -27t-26.5 27z" />
<glyph unicode="I" horiz-adv-x="503" d="M225 10v1344q0 27 27 26.5t27 -26.5v-1344q0 -27 -27 -27t-27 27z" />
<glyph unicode="J" horiz-adv-x="1210" d="M106 352v6q0 25 25 25q20 0 23 -18q25 -158 126 -249t267 -91q197 0 301 123.5t104 351.5v854q0 27 27 26.5t27 -26.5v-856q0 -233 -115 -378t-344 -145q-180 0 -296 101.5t-145 275.5z" />
<glyph unicode="K" horiz-adv-x="1361" d="M215 10v1344q0 27 26.5 26.5t26.5 -26.5v-854l889 872q8 8 19 8q27 0 26 -24q0 -10 -10 -21l-502 -491l527 -819q6 -8 6 -17q0 -25 -27 -24q-14 0 -20 10l-523 815l-385 -379v-420q0 -27 -26.5 -27t-26.5 27z" />
<glyph unicode="L" horiz-adv-x="1198" d="M215 27v1327q0 27 26.5 26.5t26.5 -26.5v-1305h803q25 0 25 -24.5t-25 -24.5h-829q-27 0 -27 27z" />
<glyph unicode="M" horiz-adv-x="1720" d="M215 10v1342q0 29 27 28q18 0 28 -20l590 -1309l590 1309q10 20 29 20q27 0 26 -28v-1342q0 -27 -26.5 -26.5t-26.5 26.5v1237l-559 -1241q-10 -23 -32.5 -22.5t-33.5 22.5l-559 1241v-1237q0 -27 -26.5 -27t-26.5 27z" />
<glyph unicode="N" horiz-adv-x="1490" d="M215 10v1344q0 27 27 26q14 0 26 -16l955 -1282v1272q0 27 26.5 26.5t26.5 -26.5v-1344q0 -27 -29 -26q-12 0 -24 16l-955 1280v-1270q0 -27 -26.5 -27t-26.5 27z" />
<glyph unicode="O" horiz-adv-x="1622" d="M135 682q0 184 81 344t237.5 261.5t357.5 101.5t357.5 -101.5t237.5 -261.5t81 -344t-81 -344t-237.5 -261.5t-357.5 -101.5t-357.5 101.5t-237.5 261.5t-81 344zM188 682q0 -264 172 -460.5t451 -196.5t451 196.5t172 460.5t-172 460.5t-451 196.5t-451 -196.5 t-172 -460.5z" />
<glyph unicode="P" horiz-adv-x="1271" d="M215 10v1327q0 27 27 27h573q170 0 272.5 -104.5t102.5 -260t-102.5 -260t-272.5 -104.5h-547v-625q0 -27 -26.5 -27t-26.5 27zM268 682h555q139 0 226.5 90t87.5 227.5t-87 227.5t-227 90h-555v-635z" />
<glyph unicode="Q" horiz-adv-x="1622" d="M135 682q0 184 81 344t237.5 261.5t357.5 101.5t357.5 -101.5t237.5 -261.5t81 -344q0 -180 -82 -341t-227 -259l149 -248q4 -8 4 -14q0 -25 -24 -25q-12 0 -21 12l-151 250q-147 -82 -324 -82q-201 0 -357.5 101.5t-237.5 261.5t-81 344zM188 682q0 -264 172 -460.5 t451 -196.5q166 0 299 75l-133 222q-4 8 -4 12q0 25 26 24q12 0 21 -12l131 -221q133 90 208 239.5t75 317.5q0 264 -172 460.5t-451 196.5t-451 -196.5t-172 -460.5z" />
<glyph unicode="R" horiz-adv-x="1409" d="M215 14v1323q0 27 27 27h628q172 0 273.5 -102.5t101.5 -257.5q0 -145 -90 -245t-242 -114l304 -622q4 -8 4 -15q0 -25 -23 -24q-18 0 -29 18l-311 641h-590v-629q0 -27 -26.5 -27t-26.5 27zM268 690h611q139 0 226 88t87 225.5t-87 225.5t-226 88h-611v-627z" />
<glyph unicode="S" horiz-adv-x="1290" d="M131 193q16 20 37 2q98 -78 232.5 -126.5t256.5 -48.5q203 0 330 80t127 215q0 127 -107.5 199t-363.5 148q-268 78 -376.5 168t-108.5 231q0 154 138 241t345 87q289 0 467 -154q10 -10 4 -23.5t-20 -13.5q-10 0 -21 8q-184 137 -430 137q-190 0 -310 -75.5t-120 -208.5 t103.5 -206t324.5 -140q295 -88 411.5 -172t116.5 -228q0 -156 -138 -247t-372 -91q-145 0 -284.5 53.5t-235.5 131.5q-12 8 -12 18q0 7 6 15z" />
<glyph unicode="T" horiz-adv-x="1196" d="M66 1339.5q0 24.5 24 24.5h1016q25 0 24.5 -24.5t-24.5 -24.5h-481v-1305q0 -27 -27 -26.5t-27 26.5v1305h-481q-24 0 -24 24.5z" />
<glyph unicode="U" horiz-adv-x="1523" d="M205 535v819q0 27 26.5 26.5t26.5 -26.5v-832q0 -223 138.5 -361t365.5 -138t365.5 138t138.5 361v832q0 27 26.5 26.5t26.5 -26.5v-819q0 -254 -153.5 -407t-403.5 -153t-403.5 153t-153.5 407z" />
<glyph unicode="V" horiz-adv-x="1343" d="M45 1356q0 25 23 24q16 0 24 -14l580 -1300l579 1300q8 14 25 14q23 0 22 -24q0 -8 -2 -13l-598 -1341q-10 -18 -26.5 -18t-26.5 18l-598 1341q-2 5 -2 13z" />
<glyph unicode="W" horiz-adv-x="2007" d="M86 1356q0 25 25 24q18 0 24 -18l410 -1276l432 1272q6 23 26.5 22.5t26.5 -22.5l432 -1272l410 1276q6 18 24 18q25 0 25 -24l-2 -8l-432 -1346q-8 -18 -23 -18q-16 0 -24 18l-436 1282l-437 -1282q-8 -18 -24 -18q-14 0 -23 18l-432 1346q-2 6 -2 8z" />
<glyph unicode="X" horiz-adv-x="1437" d="M176 8q0 8 6 17l508 661l-500 651q-6 10 -6 19q0 23 25 22q12 0 22 -12l488 -639l487 639q10 12 23 12q25 0 24 -22q0 -8 -6 -19l-499 -651l507 -661q6 -8 7 -17q0 -25 -23 -24q-18 0 -25 10l-495 651l-496 -651q-6 -10 -24 -10q-23 -1 -23 24z" />
<glyph unicode="Y" horiz-adv-x="1208" d="M66 1356q0 25 22 24q14 0 27 -14l489 -721l490 721q12 14 26 14q23 0 23 -24q0 -8 -6 -17l-506 -741v-588q0 -27 -26.5 -26.5t-26.5 26.5v588l-506 741q-6 9 -6 17z" />
<glyph unicode="Z" horiz-adv-x="1277" d="M174 23q0 8 8 20l885 1276h-838q-23 0 -22.5 22.5t22.5 22.5h877q25 0 24 -25q0 -10 -10 -24l-878 -1270h886q23 0 23 -22.5t-23 -22.5h-925q-29 0 -29 23z" />
<glyph unicode="[" horiz-adv-x="610" d="M215 -279v1657q0 27 27 27h252q25 0 24.5 -24.5t-24.5 -24.5h-226v-1612h226q25 0 24.5 -24.5t-24.5 -24.5h-252q-27 -1 -27 26z" />
<glyph unicode="\" horiz-adv-x="976" d="M174 1460q0 25 25 25q18 0 24 -19l565 -1646l5 -15q0 -25 -27 -24q-16 0 -23 18l-565 1645q-4 10 -4 16z" />
<glyph unicode="]" horiz-adv-x="610" d="M92 -280.5q0 24.5 25 24.5h225v1612h-225q-25 0 -25 24.5t25 24.5h252q27 0 26 -27v-1657q0 -27 -26 -26h-252q-25 0 -25 24.5z" />
<glyph unicode="^" horiz-adv-x="1015" d="M154 772q0 4 4 12l325 578q10 18 24.5 18t24.5 -18l326 -578q4 -8 4 -12q0 -25 -24 -24q-12 0 -21 12l-309 555l-309 -555q-8 -12 -21 -12q-24 -1 -24 24z" />
<glyph unicode="_" horiz-adv-x="847" d="M-2 -27h852v-36h-852v36z" />
<glyph unicode="`" horiz-adv-x="712" d="M266 1311q0 20 23 20q12 0 20 -12l152 -223q6 -10 6 -17q0 -20 -23 -20q-10 0 -18 10l-154 223q-6 13 -6 19z" />
<glyph unicode="a" horiz-adv-x="1124" d="M154 242q0 125 108.5 194.5t282.5 69.5q111 0 208 -39t142 -102v165q0 336 -344 336q-166 0 -297 -65q-16 -8 -25 -8q-25 0 -24 24q0 10 16 21q133 76 332 75q188 0 291.5 -100t103.5 -283v-520q0 -27 -26.5 -26.5t-26.5 26.5v109q-47 -68 -140 -106t-210 -38 q-162 0 -276.5 73t-114.5 194zM207 241.5q0 -104.5 99.5 -164t236.5 -59.5q145 0 248.5 60.5t103.5 161.5q0 98 -102.5 160.5t-245.5 62.5q-158 0 -249 -58.5t-91 -163z" />
<glyph unicode="b" horiz-adv-x="1241" d="M184 10v1344q0 27 27 26.5t27 -26.5v-699q61 123 168.5 190.5t246.5 67.5q199 0 334 -134t135 -334.5t-135 -335t-334 -134.5q-139 0 -246.5 68t-168.5 190v-223q0 -27 -27 -27t-27 27zM238 444.5q0 -180.5 120.5 -300t294.5 -119.5q176 0 296 118.5t120 301t-120 301 t-296 118.5q-174 0 -294.5 -119.5t-120.5 -300z" />
<glyph unicode="c" horiz-adv-x="1112" d="M123 444.5q0 196.5 133 332.5t336 136q123 0 226.5 -57t166.5 -156q8 -12 8 -22q0 -23 -24 -23q-14 0 -25 15q-127 195 -352 194q-180 0 -298 -123t-118 -297t118 -296.5t298 -122.5q225 0 352 194q10 14 25 14q25 0 24 -22q0 -10 -8 -23q-63 -98 -166.5 -155.5 t-226.5 -57.5q-203 0 -336 136.5t-133 333z" />
<glyph unicode="d" horiz-adv-x="1241" d="M119 444.5q0 200.5 135 334.5t334 134q139 0 246.5 -67.5t169.5 -190.5v699q0 27 26.5 26.5t26.5 -26.5v-1344q0 -27 -26.5 -26.5t-26.5 26.5v223q-61 -123 -169 -190.5t-247 -67.5q-199 0 -334 134.5t-135 335zM172 444.5q0 -182.5 120 -301t296 -118.5q174 0 295 119.5 t121 300t-121 300t-295 119.5q-176 0 -296 -118.5t-120 -301z" />
<glyph unicode="e" horiz-adv-x="1132" d="M123 444q0 199 129 334t323 135q188 0 316.5 -133t128.5 -319q0 -25 -27 -25h-815q0 -172 119 -292.5t295 -120.5q227 0 352 196q8 12 21 12q27 0 26 -24q0 -10 -6 -19q-63 -98 -165.5 -155.5t-227.5 -57.5q-205 0 -337 136t-132 333zM180 483h789q-6 156 -120 270.5 t-274 114.5q-162 0 -273.5 -110.5t-121.5 -274.5z" />
<glyph unicode="f" horiz-adv-x="616" d="M61 866.5q0 22.5 23 22.5h141v164q0 172 73 245.5t243 73.5h43q23 0 22.5 -22.5t-22.5 -22.5h-47q-139 0 -198.5 -58.5t-59.5 -217.5v-162h292q23 0 23 -22.5t-23 -22.5h-292v-834q0 -27 -27 -26.5t-27 26.5v834h-141q-23 0 -23 22.5z" />
<glyph unicode="g" horiz-adv-x="1241" d="M119 456.5q0 198.5 135 327.5t334 129q137 0 248.5 -68.5t167.5 -180.5v215q0 27 26.5 26.5t26.5 -26.5v-803q0 -213 -116 -344t-349 -131q-217 0 -371 82q-23 10 -22 24q0 20 18 21q12 0 25 -7q150 -74 350 -73q211 0 311.5 116.5t100.5 305.5v180q-57 -115 -168 -182.5 t-248 -67.5q-199 0 -334 129t-135 327.5zM172 456.5q0 -180.5 120 -294t296 -113.5q174 0 295 115t121 293t-121 292.5t-295 114.5q-176 0 -296 -113.5t-120 -294z" />
<glyph unicode="h" horiz-adv-x="1181" d="M184 10v1344q0 27 27 26.5t27 -26.5v-670q51 111 152.5 170t219.5 59q184 0 291 -110.5t107 -288.5v-504q0 -27 -27 -26.5t-27 26.5v506q0 158 -91 252t-253 94q-152 0 -262 -102.5t-110 -253.5v-496q0 -27 -27 -27t-27 27z" />
<glyph unicode="i" d="M184 10v869q0 27 27 26.5t27 -26.5v-869q0 -27 -27 -27t-27 27zM184 1102v141q0 27 27 27t27 -27v-141q0 -27 -27 -27t-27 27z" />
<glyph unicode="j" d="M-88 -376.5q0 22.5 22 22.5h46q121 0 162.5 61.5t41.5 204.5v967q0 27 27 26.5t27 -26.5v-965q0 -160 -57.5 -236.5t-198.5 -76.5h-48q-22 0 -22 22.5zM184 1102v141q0 27 27 27t27 -27v-141q0 -27 -27 -27t-27 27z" />
<glyph unicode="k" horiz-adv-x="976" d="M184 10v1344q0 27 27 26.5t27 -26.5v-918l573 461q10 8 20 8q25 0 25 -24q0 -10 -14 -23l-410 -326l428 -503q10 -12 10 -23q0 -23 -26 -22q-12 0 -21 12l-430 506l-155 -127v-365q0 -27 -27 -27t-27 27z" />
<glyph unicode="l" d="M184 10v1344q0 27 27 26.5t27 -26.5v-1344q0 -27 -27 -27t-27 27z" />
<glyph unicode="m" horiz-adv-x="1918" d="M184 10v869q0 27 27 26.5t27 -26.5v-195q47 106 153.5 167.5t222.5 61.5q137 0 229.5 -70.5t127.5 -187.5q51 119 162.5 188.5t234.5 69.5q180 0 278.5 -111.5t98.5 -287.5v-504q0 -27 -26.5 -26.5t-26.5 26.5v506q0 154 -83 250t-241 96q-147 0 -262 -103.5t-115 -248.5 v-500q0 -27 -26.5 -26.5t-26.5 26.5v506q0 154 -83 250t-241 96q-154 0 -265 -100t-111 -252v-500q0 -27 -27 -27t-27 27z" />
<glyph unicode="n" horiz-adv-x="1181" d="M184 10v869q0 27 27 26.5t27 -26.5v-195q51 111 152.5 170t219.5 59q184 0 291 -110.5t107 -288.5v-504q0 -27 -27 -26.5t-27 26.5v506q0 158 -91 252t-253 94q-152 0 -262 -102.5t-110 -253.5v-496q0 -27 -27 -27t-27 27z" />
<glyph unicode="o" horiz-adv-x="1183" d="M123 444.5q0 196.5 134 332.5t335 136t335 -136t134 -332.5t-134 -333t-335 -136.5t-335 136.5t-134 333zM176 444.5q0 -178.5 119 -299t297 -120.5t297 120.5t119 299t-119 299t-297 120.5t-297 -120.5t-119 -299z" />
<glyph unicode="p" horiz-adv-x="1241" d="M184 -373v1252q0 27 27 26.5t27 -26.5v-224q61 123 168.5 190.5t246.5 67.5q199 0 334 -134t135 -334.5t-135 -335t-334 -134.5q-139 0 -246.5 68t-168.5 190v-606q0 -27 -27 -27t-27 27zM238 444.5q0 -180.5 120.5 -300t294.5 -119.5q176 0 296 118.5t120 301t-120 301 t-296 118.5q-174 0 -294.5 -119.5t-120.5 -300z" />
<glyph unicode="q" horiz-adv-x="1241" d="M119 444.5q0 200.5 135 334.5t334 134q139 0 246.5 -67.5t169.5 -190.5v224q0 27 26.5 26.5t26.5 -26.5v-1252q0 -27 -26.5 -26.5t-26.5 26.5v606q-61 -123 -169 -190.5t-247 -67.5q-199 0 -334 134.5t-135 335zM172 444.5q0 -182.5 120 -301t296 -118.5q174 0 295 119.5 t121 300t-121 300t-295 119.5q-176 0 -296 -118.5t-120 -301z" />
<glyph unicode="r" horiz-adv-x="661" d="M184 10v869q0 27 27 26.5t27 -26.5v-203q39 100 144 164.5t226 64.5q20 0 20.5 -22.5t-20.5 -22.5q-147 0 -258.5 -104.5t-111.5 -251.5v-494q0 -27 -27 -27t-27 27z" />
<glyph unicode="s" horiz-adv-x="935" d="M123 131q0 25 24 25q10 0 19 -9q63 -59 155.5 -93t172.5 -34q133 0 209.5 51.5t76.5 133.5q0 84 -66.5 133t-215.5 88q-182 47 -268.5 106.5t-86.5 157.5q0 109 94.5 166t249.5 57q164 0 299 -82q14 -8 15 -20q0 -25 -25 -25q-6 0 -16 7q-123 76 -273 75 q-291 0 -290 -176q0 -82 69.5 -127t227.5 -90q190 -53 265 -110.5t75 -157.5q0 -104 -91.5 -168t-248.5 -64q-94 0 -195.5 38t-167.5 102q-8 8 -8 16z" />
<glyph unicode="t" horiz-adv-x="630" d="M53 866.5q0 22.5 23 22.5h213v305q0 27 26.5 27t26.5 -27v-305h254q23 0 22.5 -22.5t-22.5 -22.5h-254v-834q0 -27 -26.5 -26.5t-26.5 26.5v834h-213q-23 0 -23 22.5z" />
<glyph unicode="u" horiz-adv-x="1181" d="M174 375v504q0 27 26.5 26.5t26.5 -26.5v-506q0 -158 91.5 -252t252.5 -94q152 0 262.5 102t110.5 254v496q0 27 26.5 26.5t26.5 -26.5v-869q0 -27 -26.5 -26.5t-26.5 26.5v195q-51 -111 -152.5 -170.5t-220.5 -59.5q-184 0 -290.5 111t-106.5 289z" />
<glyph unicode="v" horiz-adv-x="933" d="M57 883q0 23 25 22q16 0 24 -18l361 -815l360 815q8 18 25 18q25 0 25 -22q0 -4 -5 -17l-380 -866q-6 -16 -24.5 -16t-25.5 16l-381 866q-4 13 -4 17z" />
<glyph unicode="w" horiz-adv-x="1376" d="M66 883q0 23 26 22q16 0 23 -16l270 -803l279 801q8 18 24.5 18t24.5 -18l278 -801l271 803q6 16 22 16q27 0 27 -22q0 -6 -4 -19l-293 -862q-6 -18 -23 -18q-18 0 -24 18l-279 795l-278 -795q-6 -18 -25 -18q-16 0 -23 18l-292 862q-4 13 -4 19z" />
<glyph unicode="x" horiz-adv-x="958" d="M106 6q0 10 7 19l336 421l-332 418q-8 12 -8 19q0 23 24 22q12 0 23 -10l323 -408l324 408q10 10 22 10q25 0 25 -22q0 -6 -8 -19l-332 -418l336 -421q6 -8 6 -19q0 -23 -25 -22q-12 0 -22 12l-326 410l-325 -410q-10 -12 -23 -12q-25 -1 -25 22z" />
<glyph unicode="y" horiz-adv-x="933" d="M66 883q0 23 24 22q16 0 25 -18l360 -821l361 821q8 18 24 18q25 0 25 -22q0 -4 -4 -17l-381 -866q-139 -317 -387 -395q-12 -4 -21 -4q-25 0 -24 24q0 20 24 27q121 35 203 122t151 232l-376 860q-4 13 -4 17z" />
<glyph unicode="z" horiz-adv-x="962" d="M139 23q0 6 8 18l625 803h-606q-23 0 -23 22.5t23 22.5h657q23 0 23 -21q0 -8 -6 -18l-629 -805h616q23 0 23 -22.5t-23 -22.5h-665q-23 0 -23 23z" />
<glyph unicode="{" horiz-adv-x="647" d="M92 542.5q0 24.5 25 24.5h22q94 0 134 41t40 131v514q0 76 32 114t108 38h88q25 0 24.5 -24.5t-24.5 -24.5h-90q-47 0 -65.5 -22.5t-18.5 -69.5v-521q0 -182 -160 -200q160 -18 160 -201v-520q0 -47 18 -69.5t66 -22.5h90q25 0 24.5 -24.5t-24.5 -24.5h-88 q-76 0 -108 37.5t-32 113.5v514q0 90 -40 131t-134 41h-22q-25 0 -25 24.5z" />
<glyph unicode="|" horiz-adv-x="581" d="M266 -381v1862q0 25 24.5 24.5t24.5 -24.5v-1862q0 -25 -24.5 -25t-24.5 25z" />
<glyph unicode="}" horiz-adv-x="647" d="M82 -294.5q0 24.5 24 24.5h91q47 0 65.5 22.5t18.5 69.5v520q0 182 159 201q-160 18 -159 200v521q0 47 -18.5 69.5t-65.5 22.5h-91q-25 0 -24.5 24.5t24.5 24.5h89q76 0 107.5 -38t31.5 -114v-514q0 -90 40 -131t134 -41h22q25 0 25 -24.5t-25 -24.5h-22q-94 0 -134 -41 t-40 -131v-514q0 -76 -32 -113.5t-107 -37.5h-89q-24 0 -24 24.5z" />
<glyph unicode="~" horiz-adv-x="1093" d="M123 494q0 10 8 18q115 115 234 115q72 0 194.5 -73t183.5 -73q70 0 115 31t100 98q6 6 15 6q18 0 18 -16q0 -8 -10 -22q-104 -139 -240 -140q-70 0 -193.5 72t-185.5 72q-59 0 -100 -22.5t-102 -78.5q-6 -6 -17 -6q-20 1 -20 19z" />
<glyph unicode="&#xa1;" horiz-adv-x="524" d="M215 866.5q0 20.5 13.5 33.5t34 13t33.5 -13t13 -33.5t-13 -34t-33.5 -13.5t-34 13.5t-13.5 34zM233 150l9 446q0 23 18.5 22.5t18.5 -22.5l8 -446v-523q0 -27 -27 -26.5t-27 26.5v523z" />
<glyph unicode="&#xa2;" horiz-adv-x="1228" d="M184 682q0 190 125 325.5t320 143.5v213q0 25 24.5 25t24.5 -25v-213q115 -6 212 -63.5t157 -149.5q8 -12 8 -23q0 -23 -25 -22q-14 0 -24 14q-127 195 -353 195q-180 0 -297.5 -123t-117.5 -297t117.5 -297t297.5 -123q225 0 353 195q10 14 24 14q25 0 25 -22 q0 -10 -8 -23q-59 -92 -156.5 -149.5t-212.5 -63.5v-213q0 -25 -24.5 -25t-24.5 25v213q-195 8 -320 143.5t-125 325.5z" />
<glyph unicode="&#xa3;" horiz-adv-x="1302" d="M143 24.5q0 24.5 25 24.5h356v623h-315q-25 0 -25 24.5t25 24.5h315v242q0 205 98.5 315.5t292.5 110.5q137 0 236 -39q18 -8 18 -23q0 -23 -22 -22q-8 0 -17 4q-92 31 -210 30q-180 0 -262.5 -94t-82.5 -289v-235h498q25 0 25 -24.5t-25 -24.5h-495v-623h536 q25 0 25 -24.5t-25 -24.5h-946q-25 0 -25 24.5z" />
<glyph unicode="&#xa4;" horiz-adv-x="1427" d="M205 180q0 10 6 17l170 168q-123 129 -123 317q0 182 121 313l-168 168q-6 6 -6 16.5t6 16.5t16.5 6t18.5 -8l166 -168q127 111 301 111q176 0 301 -113l168 170q8 8 18 8t16.5 -6t6.5 -16.5t-6 -16.5l-170 -168q121 -131 120.5 -313t-123.5 -315l173 -170q6 -6 6 -16.5 t-6.5 -16.5t-16.5 -6t-18 8l-170 170q-125 -109 -299 -109t-299 109l-168 -170q-8 -8 -18.5 -8t-16.5 6t-6 16zM307 682q0 -172 117 -291t289 -119t288.5 119t116.5 291t-116.5 291t-288.5 119t-289 -119t-117 -291z" />
<glyph unicode="&#xa5;" horiz-adv-x="1241" d="M123 1356q0 25 22 24q16 0 27 -14l449 -721l448 721q10 14 27 14q23 0 22 -24q0 -8 -6 -17l-350 -557h270q25 0 25 -24.5t-25 -24.5h-301l-84 -135v-133h385q25 0 25 -24.5t-25 -24.5h-385v-406q0 -27 -26.5 -26.5t-26.5 26.5v406h-383q-25 0 -25 24.5t25 24.5h383v133 l-86 135h-297q-25 0 -25 24.5t25 24.5h266l-348 557q-6 9 -6 17z" />
<glyph unicode="&#xa6;" horiz-adv-x="581" d="M266 -381v776q0 25 24.5 25t24.5 -25v-776q0 -25 -24.5 -25t-24.5 25zM266 705v776q0 25 24.5 24.5t24.5 -24.5v-776q0 -25 -24.5 -25t-24.5 25z" />
<glyph unicode="&#xa7;" horiz-adv-x="1228" d="M195 -45q0 25 24 25q12 0 23 -11q168 -150 405 -149q145 0 233.5 60.5t88.5 158.5q0 94 -76 148.5t-270 138.5q-219 94 -307.5 162.5t-88.5 177.5q0 170 211 266q-131 84 -131 211q0 119 103.5 182.5t283.5 63.5q176 0 314 -76q16 -8 16 -23q0 -25 -25 -24q-8 0 -18 6 q-127 72 -287 71q-154 0 -244 -50t-90 -148q0 -43 17.5 -80t37 -59.5t72 -52t82 -43t107.5 -48.5q217 -94 298 -162.5t81 -179.5q0 -164 -174 -268q74 -43 107.5 -92t33.5 -121q0 -115 -102.5 -189.5t-274.5 -74.5q-123 0 -240.5 44t-199.5 118q-10 10 -10 18zM279 668 q0 -94 75.5 -152.5t253.5 -134.5q201 -90 230 -105q166 90 166 240q0 98 -72 159.5t-264 141.5q-117 49 -185 88q-94 -41 -149 -95t-55 -142z" />
<glyph unicode="&#xa8;" horiz-adv-x="735" d="M164 1150.5q0 20.5 14.5 36t37 15.5t36.5 -15.5t14 -36t-14 -35.5t-36.5 -15t-37 15t-14.5 35.5zM469 1150.5q0 20.5 15.5 36t36 15.5t35.5 -15.5t15 -36t-15 -35.5t-35.5 -15t-36 15t-15.5 35.5z" />
<glyph unicode="&#xa9;" horiz-adv-x="1705" d="M143 682q0 299 201 503t510 204t509 -204t200 -503t-200 -503t-509 -204t-510 204t-201 503zM193 682q0 -281 187 -471.5t474 -190.5t473 190.5t186 471.5t-186 471t-473 190t-474 -190t-187 -471zM547 682q0 141 93 237.5t232 96.5q172 0 261 -142q6 -10 6 -18 q0 -23 -25 -22q-16 0 -29 20q-72 113 -213 113q-121 0 -197.5 -83t-76.5 -202t77 -202t197 -83q141 0 213 113q12 20 29 20q25 0 25 -22q0 -8 -6 -19q-88 -141 -261 -141q-139 0 -232 96.5t-93 237.5z" />
<glyph unicode="&#xaa;" horiz-adv-x="878" d="M174 940q0 86 72.5 133t187.5 47q154 0 230 -88v103q0 215 -224 215q-109 0 -192 -43q-12 -6 -21 -7q-18 0 -18 19q0 10 12 16q90 53 221 54q125 0 194 -67t69 -187v-347q0 -20 -20.5 -20t-20.5 20v62q-68 -88 -230 -88q-111 0 -185.5 49t-74.5 129zM217 940 q0 -66 64.5 -104.5t150.5 -38.5q98 0 165 40t67 101q0 66 -67 106.5t-161 40.5q-102 0 -160.5 -38.5t-58.5 -106.5z" />
<glyph unicode="&#xab;" horiz-adv-x="1183" d="M143 436q0 10 7 17l346 340q8 8 18 8q25 0 25 -23q0 -10 -9 -18l-329 -324l329 -323q8 -8 9 -19q0 -23 -25 -22q-10 0 -18 8l-346 340q-7 6 -7 16zM614 436q0 10 7 17l346 340q8 8 18 8q25 0 25 -23q0 -10 -9 -18l-329 -324l329 -323q8 -8 9 -19q0 -23 -25 -22 q-10 0 -18 8l-346 340q-7 6 -7 16z" />
<glyph unicode="&#xac;" horiz-adv-x="1300" d="M154 608.5q0 24.5 24 24.5h873q25 0 24 -25v-434q0 -27 -26.5 -27t-26.5 27v410h-844q-24 0 -24 24.5z" />
<glyph unicode="&#xad;" horiz-adv-x="878" d="M164 507.5q0 22.5 22 22.5h506q23 0 23 -22.5t-23 -22.5h-506q-22 0 -22 22.5z" />
<glyph unicode="&#xae;" horiz-adv-x="884" d="M102 1048.5q0 143.5 96.5 242t244 98.5t243.5 -98.5t96 -242t-96 -241.5t-243.5 -98t-244 98t-96.5 241.5zM141 1049q0 -127 84 -216.5t217 -89.5t217 89.5t84 216.5t-84 216t-217 89t-217 -89t-84 -216zM342 889v325q0 18 18 19h101q49 0 78.5 -27.5t29.5 -77.5 q0 -76 -71 -102l75 -129q8 -18 -8 -24.5t-24 8.5l-80 141h-82v-133q0 -18 -18.5 -18t-18.5 18zM379 1055h82q72 0 71 73q0 33 -18 52.5t-53 19.5h-82v-145z" />
<glyph unicode="&#xaf;" horiz-adv-x="796" d="M143 1148.5q0 22.5 23 22.5h465q23 0 22.5 -22.5t-22.5 -22.5h-465q-23 0 -23 22.5z" />
<glyph unicode="&#xb0;" horiz-adv-x="638" d="M113 1177.5q0 90.5 56 151t150.5 60.5t150.5 -60.5t56 -151t-56 -150.5t-150.5 -60t-150.5 60t-56 150.5zM154 1177.5q0 -75.5 46 -126t119.5 -50.5t119.5 50.5t46 126t-46 126t-119.5 50.5t-119.5 -50.5t-46 -126z" />
<glyph unicode="&#xb1;" horiz-adv-x="1310" d="M195 24.5q0 24.5 24 24.5h873q25 0 24.5 -24.5t-24.5 -24.5h-873q-24 0 -24 24.5zM195 661.5q0 24.5 24 24.5h410v410q0 27 26.5 26.5t26.5 -26.5v-410h410q25 0 24.5 -24.5t-24.5 -24.5h-410v-410q0 -27 -26.5 -26.5t-26.5 26.5v410h-410q-24 0 -24 24.5z" />
<glyph unicode="&#xb2;" horiz-adv-x="976" d="M205 567q0 145 61.5 219t206.5 148q158 80 217.5 129t59.5 125t-60.5 119t-171.5 43q-141 0 -258 -88q-10 -6 -16 -7q-18 0 -19 19q0 10 11 18q121 96 286 97q125 0 199 -53.5t74 -147.5q0 -88 -62.5 -143.5t-224.5 -139.5q-147 -76 -202.5 -140.5t-55.5 -180.5h530 q23 0 23 -19q0 -20 -23 -20h-553q-22 -1 -22 22z" />
<glyph unicode="&#xb3;" horiz-adv-x="933" d="M154 651q0 14 13 19.5t28 -6.5q96 -90 260 -91q119 0 189.5 57.5t70.5 154t-68.5 147.5t-183.5 51h-80q-25 0 -25 20.5t25 20.5h76q90 0 147.5 47t57.5 117q0 78 -53.5 119t-151.5 41q-102 0 -178 -50q-14 -8 -25.5 -3t-11.5 18q0 10 12 18q84 57 203 58 q115 0 182.5 -53.5t67.5 -147.5q0 -57 -38 -106.5t-110 -73.5q84 -12 141.5 -71.5t57.5 -152.5q0 -109 -82 -180.5t-223 -71.5q-174 0 -291 101q-10 8 -10 18z" />
<glyph unicode="&#xb4;" horiz-adv-x="712" d="M246 1079q0 6 6 17l151 223q8 12 21 12q23 0 22 -20q0 -6 -6 -19l-153 -223q-8 -10 -19 -10q-22 0 -22 20z" />
<glyph unicode="&#xb5;" horiz-adv-x="1181" d="M174 -373v1252q0 27 26.5 26.5t26.5 -26.5v-523q0 -150 92.5 -239.5t251.5 -89.5q152 0 262.5 102t110.5 254v496q0 27 26.5 26.5t26.5 -26.5v-869q0 -27 -26.5 -26.5t-26.5 26.5v195q-51 -111 -152.5 -170.5t-220.5 -59.5q-242 0 -344 183v-531q0 -27 -26.5 -27 t-26.5 27z" />
<glyph unicode="&#xb6;" horiz-adv-x="1116" d="M143 1001.5q0 161.5 106.5 262t268.5 100.5h348q25 0 25 -25v-1331q0 -25 -24.5 -24.5t-24.5 24.5v1315h-246v-1698q0 -25 -24.5 -24.5t-24.5 24.5v1014h-29q-162 0 -268.5 100.5t-106.5 262zM193 1001.5q0 -143.5 92 -232.5t235 -89h27v643h-29q-141 0 -233 -89 t-92 -232.5z" />
<glyph unicode="&#xb7;" horiz-adv-x="462" d="M205 539v112q0 27 26.5 27t26.5 -27v-112q0 -27 -26.5 -27t-26.5 27z" />
<glyph unicode="&#xb8;" horiz-adv-x="649" d="M164 -346q0 12 10 19.5t25 0.5q72 -29 137 -28q131 0 131 90q0 92 -131 92q-45 0 -86 -8q-10 -2 -17 -2q-23 0 -22 18q0 6 4 14l78 152h49l-72 -139q33 8 78 8q74 0 122 -33t48 -100q0 -61 -48 -99t-134 -38q-80 0 -156 30q-16 7 -16 23z" />
<glyph unicode="&#xb9;" horiz-adv-x="688" d="M176 1296.5q2 12.5 17 16.5l194 59q25 8 31 8q25 0 24 -22v-795q0 -23 -22.5 -22.5t-22.5 22.5v768l-190 -59q-14 -4 -23.5 4t-7.5 20.5z" />
<glyph unicode="&#xba;" horiz-adv-x="894" d="M133 1075q0 131 90 222.5t226 91.5q133 0 223 -91.5t90 -222.5q0 -133 -90 -223t-223 -90q-135 0 -225.5 90t-90.5 223zM176 1075q0 -119 77 -195.5t196 -76.5q117 0 193.5 77.5t76.5 194.5t-78 195t-192 78q-119 0 -196 -78t-77 -195z" />
<glyph unicode="&#xbb;" horiz-adv-x="1183" d="M174 94q0 10 8 19l330 323l-330 324q-8 8 -8 18q0 23 25 23q10 0 18 -8l346 -340q6 -6 6 -16.5t-6 -16.5l-346 -340q-8 -8 -18 -8q-25 -1 -25 22zM645 94q0 10 8 19l330 323l-330 324q-8 8 -8 18q0 23 25 23q10 0 18 -8l346 -340q6 -6 6 -16.5t-6 -16.5l-346 -340 q-8 -8 -18 -8q-25 -1 -25 22z" />
<glyph unicode="&#xbc;" horiz-adv-x="1783" d="M186 1296.5q2 12.5 17 16.5l194 59q25 8 31 8q25 0 25 -22v-795q0 -23 -22.5 -22.5t-22.5 22.5v768l-191 -59q-14 -4 -23.5 4t-7.5 20.5zM365 -4q0 8 6 16l901 1362q8 14 22 15q12 0 18.5 -10.5t-1.5 -24.5l-903 -1366q-10 -12 -21 -13q-22 1 -22 21zM924 268q0 8 10 19 l487 536q12 12 23 13q20 0 20 -23v-524h144q23 0 22.5 -20.5t-22.5 -20.5h-144v-234q0 -23 -22.5 -22.5t-22.5 22.5v234h-475q-20 0 -20 20zM991 289h428v471z" />
<glyph unicode="&#xbd;" horiz-adv-x="1925" d="M186 1296.5q2 12.5 17 16.5l194 59q25 8 31 8q25 0 25 -22v-795q0 -23 -22.5 -22.5t-22.5 22.5v768l-191 -59q-14 -4 -23.5 4t-7.5 20.5zM365 -4q0 8 6 16l901 1362q8 14 22 15q12 0 18.5 -10.5t-1.5 -24.5l-903 -1366q-10 -12 -21 -13q-22 1 -22 21zM1153 23 q0 145 61.5 218.5t206.5 147.5q158 80 217.5 129t59.5 125t-60.5 119t-171.5 43q-141 0 -258 -88q-8 -6 -16 -6q-18 0 -18 18q0 10 10 19q121 96 286 96q125 0 199 -53.5t74 -147.5q0 -88 -62.5 -143.5t-224.5 -139.5q-147 -76 -202.5 -140t-55.5 -181h531q23 0 22 -19 q0 -20 -22 -20h-553q-23 0 -23 23z" />
<glyph unicode="&#xbe;" horiz-adv-x="1992" d="M154 651q0 14 13 19.5t28 -6.5q96 -90 260 -91q119 0 189.5 57.5t70.5 154t-68.5 147.5t-183.5 51h-80q-25 0 -25 20.5t25 20.5h76q90 0 147.5 47t57.5 117q0 78 -53.5 119t-151.5 41q-102 0 -178 -50q-14 -8 -25.5 -3t-11.5 18q0 10 12 18q84 57 203 58 q115 0 182.5 -53.5t67.5 -147.5q0 -57 -38 -106.5t-110 -73.5q84 -12 141.5 -71.5t57.5 -152.5q0 -109 -82 -180.5t-223 -71.5q-174 0 -291 101q-10 8 -10 18zM573 -4q0 8 7 16l901 1362q8 14 22 15q12 0 18.5 -10.5t-1.5 -24.5l-904 -1366q-10 -12 -20 -13q-23 1 -23 21z M1133 268q0 8 10 19l487 536q12 12 23 13q20 0 20 -23v-524h144q23 0 22.5 -20.5t-22.5 -20.5h-144v-234q0 -23 -22.5 -22.5t-22.5 22.5v234h-475q-20 0 -20 20zM1200 289h428v471z" />
<glyph unicode="&#xbf;" horiz-adv-x="999" d="M123 -125q0 92 43 159.5t160 166.5q131 109 165.5 167t34.5 175v94q0 27 27 27t27 -27v-88q0 -139 -41 -203.5t-179 -179.5q-106 -90 -145 -146.5t-39 -142.5q0 -227 330 -227q195 0 360 112q10 6 19 7q8 0 15 -7.5t7 -15.5q0 -10 -12 -20q-170 -125 -393 -125 q-178 0 -278.5 67.5t-100.5 206.5zM506 866.5q0 20.5 13 33.5t33.5 13t34 -13t13.5 -33.5t-13.5 -34t-34 -13.5t-33.5 13.5t-13 34z" />
<glyph unicode="&#xc0;" horiz-adv-x="1462" d="M102 12q0 4 4 13l601 1339q8 16 24.5 16t24.5 -16l600 -1339q4 -8 4 -13q0 -29 -27 -28q-18 0 -24 14l-201 451h-756l-198 -451q-6 -14 -25 -14q-27 -1 -27 28zM375 498h712l-356 807zM551 1710q0 20 20 21q14 0 23 -11l149 -174q6 -10 7 -14q0 -20 -21 -21q-12 0 -22 11 l-148 170q-8 8 -8 18z" />
<glyph unicode="&#xc1;" horiz-adv-x="1462" d="M102 12q0 4 4 13l601 1339q8 16 24.5 16t24.5 -16l600 -1339q4 -8 4 -13q0 -29 -27 -28q-18 0 -24 14l-201 451h-756l-198 -451q-6 -14 -25 -14q-27 -1 -27 28zM375 498h712l-356 807zM696 1532q0 4 6 14l150 174q8 10 22 11q20 0 21 -21q0 -10 -8 -18l-148 -170 q-10 -10 -22 -11q-21 1 -21 21z" />
<glyph unicode="&#xc2;" horiz-adv-x="1462" d="M102 12q0 4 4 13l601 1339q8 16 24.5 16t24.5 -16l600 -1339q4 -8 4 -13q0 -29 -27 -28q-18 0 -24 14l-201 451h-756l-198 -451q-6 -14 -25 -14q-27 -1 -27 28zM375 498h712l-356 807zM504 1534q0 8 10 18l188 164q14 14 27 15q8 0 27 -15l188 -164q10 -10 10 -18 t-7 -15.5t-15 -7.5t-12 5l-191 165l-190 -165q-4 -4 -12.5 -4.5t-15.5 7t-7 15.5z" />
<glyph unicode="&#xc3;" horiz-adv-x="1462" d="M102 12q0 4 4 13l601 1339q8 16 24.5 16t24.5 -16l600 -1339q4 -8 4 -13q0 -29 -27 -28q-18 0 -24 14l-201 451h-756l-198 -451q-6 -14 -25 -14q-27 -1 -27 28zM375 498h712l-356 807zM465 1554q0 10 6 19q72 92 143 92q16 0 30.5 -2t29 -9t21.5 -10.5t25.5 -14.5 t24.5 -15q63 -39 105 -39q51 0 108 74q8 12 23 12q20 0 20 -19q0 -8 -8 -20q-25 -31 -40 -46t-42.5 -30.5t-58.5 -15.5q-49 0 -127 45q-10 6 -27.5 17.5t-25.5 15.5t-23.5 8t-32.5 4q-55 0 -106 -72q-10 -12 -23 -12q-22 0 -22 18z" />
<glyph unicode="&#xc4;" horiz-adv-x="1462" d="M102 12q0 4 4 13l601 1339q8 16 24.5 16t24.5 -16l600 -1339q4 -8 4 -13q0 -29 -27 -28q-18 0 -24 14l-201 451h-756l-198 -451q-6 -14 -25 -14q-27 -1 -27 28zM375 498h712l-356 807zM508 1613.5q0 20.5 14.5 36t37 15.5t36.5 -15.5t14 -36t-14 -35.5t-36.5 -15t-37 15 t-14.5 35.5zM854 1613.5q0 20.5 15.5 36t36 15.5t35.5 -15.5t15 -36t-15 -35.5t-35.5 -15t-36 15t-15.5 35.5z" />
<glyph unicode="&#xc5;" horiz-adv-x="1462" d="M102 12q0 4 4 13l592 1321q-45 10 -72.5 45.5t-27.5 83.5q0 55 38 94t95 39t95 -39t38 -94q0 -47 -27.5 -83t-72.5 -46l592 -1321q4 -8 4 -13q0 -29 -27 -28q-18 0 -24 14l-201 451h-756l-198 -451q-6 -14 -25 -14q-27 -1 -27 28zM375 498h712l-356 807zM641 1475 q0 -41 25.5 -68t64.5 -27t64.5 27t25.5 68t-25.5 67.5t-64.5 26.5t-64.5 -26.5t-25.5 -67.5z" />
<glyph unicode="&#xc6;" horiz-adv-x="1908" d="M102 12q0 4 4 13l601 1323q8 16 24 16h1026q25 0 25 -24.5t-25 -24.5h-987l256 -565h473q25 0 25 -25t-25 -25h-450l294 -651h443q25 0 24.5 -24.5t-24.5 -24.5h-461q-18 0 -25 14l-192 435h-756l-198 -451q-6 -14 -25 -14q-27 -1 -27 28zM375 498h712l-356 790z" />
<glyph unicode="&#xc7;" horiz-adv-x="1495" d="M135 682q0 285 189.5 496t484.5 211q182 0 327.5 -82t231.5 -220q4 -8 4 -16q0 -25 -24 -24q-14 0 -23 12q-186 281 -516 280q-274 0 -447.5 -197.5t-173.5 -459.5t173.5 -459.5t447.5 -197.5q330 0 516 280q8 12 23 12q25 0 24 -24q0 -8 -4 -17q-84 -135 -224 -215.5 t-317 -85.5l-57 -112q33 8 78 8q74 0 122 -33t48 -100q0 -61 -48 -99t-134 -38q-80 0 -156 30q-16 6 -16 23q0 12 10 19.5t24 0.5q72 -29 138 -28q131 0 131 90q0 92 -131 92q-45 0 -86 -8q-10 -2 -17 -2q-23 0 -22 18q0 6 4 14l63 127q-283 12 -463 219t-180 486z" />
<glyph unicode="&#xc8;" horiz-adv-x="1204" d="M215 27v1310q0 27 27 27h811q25 0 24.5 -24.5t-24.5 -24.5h-785v-565h465q25 0 25 -25t-25 -25h-465v-651h813q25 0 25 -24.5t-25 -24.5h-839q-27 0 -27 27zM487 1710q0 20 21 21q14 0 22 -11l150 -174q6 -10 6 -14q0 -20 -20 -21q-12 0 -23 11l-147 170q-9 8 -9 18z" />
<glyph unicode="&#xc9;" horiz-adv-x="1204" d="M215 27v1310q0 27 27 27h811q25 0 24.5 -24.5t-24.5 -24.5h-785v-565h465q25 0 25 -25t-25 -25h-465v-651h813q25 0 25 -24.5t-25 -24.5h-839q-27 0 -27 27zM584 1532q0 4 6 14l149 174q8 10 23 11q20 0 20 -21q0 -10 -8 -18l-147 -170q-10 -10 -23 -11q-20 1 -20 21z " />
<glyph unicode="&#xca;" horiz-adv-x="1204" d="M215 27v1310q0 27 27 27h811q25 0 24.5 -24.5t-24.5 -24.5h-785v-565h465q25 0 25 -25t-25 -25h-465v-651h813q25 0 25 -24.5t-25 -24.5h-839q-27 0 -27 27zM422 1534q0 8 10 18l189 164q14 14 26 15q8 0 27 -15l188 -164q10 -10 10 -18t-7 -15.5t-15 -7.5t-12 5 l-191 165l-190 -165q-4 -4 -12.5 -4.5t-15.5 7t-7 15.5z" />
<glyph unicode="&#xcb;" horiz-adv-x="1204" d="M215 27v1310q0 27 27 27h811q25 0 24.5 -24.5t-24.5 -24.5h-785v-565h465q25 0 25 -25t-25 -25h-465v-651h813q25 0 25 -24.5t-25 -24.5h-839q-27 0 -27 27zM434 1613.5q0 20.5 14.5 36t37 15.5t37 -15.5t14.5 -36t-14.5 -35.5t-37 -15t-37 15t-14.5 35.5zM780 1613.5 q0 20.5 15.5 36t36 15.5t36 -15.5t15.5 -36t-15.5 -35.5t-36 -15t-36 15t-15.5 35.5z" />
<glyph unicode="&#xcc;" horiz-adv-x="503" d="M94 1710q0 20 21 21q14 0 22 -11l150 -174q6 -10 6 -14q0 -20 -21 -21q-12 0 -22 11l-148 170q-8 8 -8 18zM225 10v1344q0 27 27 26.5t27 -26.5v-1344q0 -27 -27 -27t-27 27z" />
<glyph unicode="&#xcd;" horiz-adv-x="503" d="M205 1532q0 4 6 14l149 174q8 10 23 11q20 0 20 -21q0 -10 -8 -18l-147 -170q-10 -10 -23 -11q-20 1 -20 21zM225 10v1344q0 27 27 26.5t27 -26.5v-1344q0 -27 -27 -27t-27 27z" />
<glyph unicode="&#xce;" horiz-adv-x="503" d="M27 1534q0 8 10 18l188 164q14 14 27 15q8 0 27 -15l188 -164q10 -10 10 -18t-7 -15.5t-15.5 -7.5t-12.5 5l-190 165l-191 -165q-4 -4 -12 -4.5t-15 7t-7 15.5zM225 10v1344q0 27 27 26.5t27 -26.5v-1344q0 -27 -27 -27t-27 27z" />
<glyph unicode="&#xcf;" horiz-adv-x="503" d="M29 1613.5q0 20.5 14 36t36.5 15.5t37 -15.5t14.5 -36t-14.5 -35.5t-37 -15t-36.5 15t-14 35.5zM225 10v1344q0 27 27 26.5t27 -26.5v-1344q0 -27 -27 -27t-27 27zM375 1613.5q0 20.5 15.5 36t35.5 15.5t35.5 -15.5t15.5 -36t-15.5 -35.5t-35.5 -15t-35.5 15t-15.5 35.5z " />
<glyph unicode="&#xd0;" horiz-adv-x="1554" d="M113 682q0 25 24 25h185v630q0 27 26 27h434q295 0 472.5 -197.5t177.5 -484.5t-177.5 -484.5t-472.5 -197.5h-434q-27 0 -26 27v630h-185q-24 0 -24 25zM375 49h397q283 0 444.5 184.5t161.5 448.5t-161.5 448.5t-444.5 184.5h-397v-608h338q25 0 24.5 -25t-24.5 -25 h-338v-608z" />
<glyph unicode="&#xd1;" horiz-adv-x="1490" d="M215 10v1344q0 27 27 26q14 0 26 -16l955 -1282v1272q0 27 26.5 26.5t26.5 -26.5v-1344q0 -27 -29 -26q-12 0 -24 16l-955 1280v-1270q0 -27 -26.5 -27t-26.5 27zM489 1554q0 10 7 19q72 92 143 92q16 0 30.5 -2t29 -9t21.5 -10.5t25.5 -14.5t24.5 -15q63 -39 104 -39 q51 0 109 74q8 12 23 12q20 0 20 -19q0 -8 -8 -20q-25 -31 -40 -46t-43 -30.5t-58 -15.5q-49 0 -127 45q-10 6 -27.5 17.5t-26 15.5t-24 8t-31.5 4q-55 0 -106 -72q-10 -12 -23 -12q-23 0 -23 18z" />
<glyph unicode="&#xd2;" horiz-adv-x="1622" d="M135 682q0 184 81 344t237.5 261.5t357.5 101.5t357.5 -101.5t237.5 -261.5t81 -344t-81 -344t-237.5 -261.5t-357.5 -101.5t-357.5 101.5t-237.5 261.5t-81 344zM188 682q0 -264 172 -460.5t451 -196.5t451 196.5t172 460.5t-172 460.5t-451 196.5t-451 -196.5 t-172 -460.5zM647 1710q0 20 21 21q14 0 22 -11l150 -174q6 -10 6 -14q0 -20 -21 -21q-12 0 -22 11l-148 170q-8 8 -8 18z" />
<glyph unicode="&#xd3;" horiz-adv-x="1622" d="M135 682q0 184 81 344t237.5 261.5t357.5 101.5t357.5 -101.5t237.5 -261.5t81 -344t-81 -344t-237.5 -261.5t-357.5 -101.5t-357.5 101.5t-237.5 261.5t-81 344zM188 682q0 -264 172 -460.5t451 -196.5t451 196.5t172 460.5t-172 460.5t-451 196.5t-451 -196.5 t-172 -460.5zM741 1532q0 4 7 14l149 174q8 10 23 11q20 0 20 -21q0 -10 -8 -18l-148 -170q-10 -10 -22 -11q-21 1 -21 21z" />
<glyph unicode="&#xd4;" horiz-adv-x="1622" d="M135 682q0 184 81 344t237.5 261.5t357.5 101.5t357.5 -101.5t237.5 -261.5t81 -344t-81 -344t-237.5 -261.5t-357.5 -101.5t-357.5 101.5t-237.5 261.5t-81 344zM188 682q0 -264 172 -460.5t451 -196.5t451 196.5t172 460.5t-172 460.5t-451 196.5t-451 -196.5 t-172 -460.5zM586 1534q0 8 10 18l188 164q14 14 27 15q8 0 27 -15l188 -164q10 -10 10 -18t-7 -15.5t-15 -7.5t-13 5l-190 165l-190 -165q-4 -4 -12.5 -4.5t-15.5 7t-7 15.5z" />
<glyph unicode="&#xd5;" horiz-adv-x="1622" d="M135 682q0 184 81 344t237.5 261.5t357.5 101.5t357.5 -101.5t237.5 -261.5t81 -344t-81 -344t-237.5 -261.5t-357.5 -101.5t-357.5 101.5t-237.5 261.5t-81 344zM188 682q0 -264 172 -460.5t451 -196.5t451 196.5t172 460.5t-172 460.5t-451 196.5t-451 -196.5 t-172 -460.5zM553 1554q0 10 6 19q72 92 143 92q16 0 31 -2t29 -9t21.5 -10.5t25.5 -14.5t25 -15q63 -39 104 -39q51 0 109 74q10 12 22 12q20 0 21 -19q0 -8 -9 -20q-25 -31 -40 -46t-42.5 -30.5t-58.5 -15.5q-47 0 -127 45q-10 6 -27.5 17.5t-25.5 15.5t-23.5 8t-31.5 4 q-55 0 -107 -72q-8 -12 -23 -12q-22 0 -22 18z" />
<glyph unicode="&#xd6;" horiz-adv-x="1622" d="M135 682q0 184 81 344t237.5 261.5t357.5 101.5t357.5 -101.5t237.5 -261.5t81 -344t-81 -344t-237.5 -261.5t-357.5 -101.5t-357.5 101.5t-237.5 261.5t-81 344zM188 682q0 -264 172 -460.5t451 -196.5t451 196.5t172 460.5t-172 460.5t-451 196.5t-451 -196.5 t-172 -460.5zM588 1613.5q0 20.5 15 36t35.5 15.5t36 -15.5t15.5 -36t-15.5 -35.5t-36 -15t-35.5 15t-15 35.5zM934 1613.5q0 20.5 14.5 36t37 15.5t36.5 -15.5t14 -36t-14 -35.5t-36.5 -15t-37 15t-14.5 35.5z" />
<glyph unicode="&#xd7;" horiz-adv-x="1097" d="M223.5 335.5q-18.5 18.5 -0.5 37.5l289 289l-289 288q-18 18 0.5 37t36.5 0l289 -289l289 289q18 18 36.5 0t-0.5 -37l-288 -288l288 -289q18 -18 0 -37t-36 0l-289 289l-289 -289q-18 -19 -36.5 -0.5z" />
<glyph unicode="&#xd8;" horiz-adv-x="1622" d="M135 -106q0 8 6 16l207 250q-102 98 -157.5 235t-55.5 287q0 184 81 344t237.5 261.5t357.5 101.5q244 0 430 -156l207 250q8 8 18 8q20 0 21 -21q0 -8 -6 -16l-209 -250q102 -100 158.5 -237.5t56.5 -284.5q0 -184 -81 -344t-237.5 -261.5t-357.5 -101.5 q-250 0 -430 154l-205 -246q-8 -10 -20 -10q-21 1 -21 21zM188 682q0 -287 193 -483l827 995q-170 145 -397 145q-279 0 -451 -196.5t-172 -460.5zM414 168q166 -143 397 -143q279 0 451 196.5t172 460.5q0 289 -195 483z" />
<glyph unicode="&#xd9;" horiz-adv-x="1523" d="M205 535v819q0 27 26.5 26.5t26.5 -26.5v-832q0 -223 138.5 -361t365.5 -138t365.5 138t138.5 361v832q0 27 26.5 26.5t26.5 -26.5v-819q0 -254 -153.5 -407t-403.5 -153t-403.5 153t-153.5 407zM623 1710q0 20 20 21q14 0 23 -11l149 -174q6 -10 6 -14q0 -20 -20 -21 q-12 0 -23 11l-147 170q-8 8 -8 18z" />
<glyph unicode="&#xda;" horiz-adv-x="1523" d="M205 535v819q0 27 26.5 26.5t26.5 -26.5v-832q0 -223 138.5 -361t365.5 -138t365.5 138t138.5 361v832q0 27 26.5 26.5t26.5 -26.5v-819q0 -254 -153.5 -407t-403.5 -153t-403.5 153t-153.5 407zM719 1532q0 4 6 14l149 174q8 10 23 11q20 0 21 -21q0 -10 -9 -18 l-147 -170q-10 -10 -23 -11q-20 1 -20 21z" />
<glyph unicode="&#xdb;" horiz-adv-x="1523" d="M205 535v819q0 27 26.5 26.5t26.5 -26.5v-832q0 -223 138.5 -361t365.5 -138t365.5 138t138.5 361v832q0 27 26.5 26.5t26.5 -26.5v-819q0 -254 -153.5 -407t-403.5 -153t-403.5 153t-153.5 407zM539 1534q0 8 10 18l188 164q14 14 27 15q8 0 27 -15l188 -164 q10 -10 10 -18t-7 -15.5t-15.5 -7.5t-12.5 5l-190 165l-191 -165q-4 -4 -12 -4.5t-15 7t-7 15.5z" />
<glyph unicode="&#xdc;" horiz-adv-x="1523" d="M205 535v819q0 27 26.5 26.5t26.5 -26.5v-832q0 -223 138.5 -361t365.5 -138t365.5 138t138.5 361v832q0 27 26.5 26.5t26.5 -26.5v-819q0 -254 -153.5 -407t-403.5 -153t-403.5 153t-153.5 407zM539 1613.5q0 20.5 15 36t35.5 15.5t36 -15.5t15.5 -36t-15.5 -35.5 t-36 -15t-35.5 15t-15 35.5zM885 1613.5q0 20.5 14 36t36.5 15.5t37 -15.5t14.5 -36t-14.5 -35.5t-37 -15t-36.5 15t-14 35.5z" />
<glyph unicode="&#xdd;" horiz-adv-x="1208" d="M66 1356q0 25 22 24q14 0 27 -14l489 -721l490 721q12 14 26 14q23 0 23 -24q0 -8 -6 -17l-506 -741v-588q0 -27 -26.5 -26.5t-26.5 26.5v588l-506 741q-6 9 -6 17zM565 1532q0 4 6 14l150 174q8 10 22 11q20 0 21 -21q0 -10 -8 -18l-148 -170q-10 -10 -22 -11 q-21 1 -21 21z" />
<glyph unicode="&#xde;" horiz-adv-x="1271" d="M215 10v1344q0 27 26.5 26.5t26.5 -26.5v-281h547q170 0 272.5 -104.5t102.5 -260t-102.5 -260t-272.5 -104.5h-547v-334q0 -27 -26.5 -27t-26.5 27zM268 391h555q139 0 226.5 90t87.5 227.5t-87 227.5t-227 90h-555v-635z" />
<glyph unicode="&#xdf;" horiz-adv-x="1261" d="M184 10v996q0 180 95.5 281.5t281.5 101.5q172 0 271.5 -74t99.5 -211q0 -68 -31 -122t-100 -136q-12 -14 -35 -40t-30 -35l-21 -28q-14 -18 -18.5 -27t-10.5 -23.5t-8 -27t-2 -28.5q0 -61 44 -99t154 -79q172 -66 233.5 -119t61.5 -152q0 -94 -81.5 -153.5t-225.5 -59.5 q-180 0 -311 109q-8 8 -8 16q0 25 22 25q8 0 21 -8q125 -96 278 -97q119 0 185.5 46.5t66.5 121.5q0 80 -49 123t-190.5 98.5t-197.5 99.5t-56 130q0 41 18 79t37.5 62.5t77.5 89.5q47 53 67.5 81t38 69t17.5 84q0 121 -87 179t-231 58q-324 0 -323 -335v-996q0 -27 -27 -27 t-27 27z" />
<glyph unicode="&#xe0;" horiz-adv-x="1124" d="M154 242q0 125 108.5 194.5t282.5 69.5q111 0 208 -39t142 -102v165q0 336 -344 336q-166 0 -297 -65q-16 -8 -25 -8q-25 0 -24 24q0 10 16 21q133 76 332 75q188 0 291.5 -100t103.5 -283v-520q0 -27 -26.5 -26.5t-26.5 26.5v109q-47 -68 -140 -106t-210 -38 q-162 0 -276.5 73t-114.5 194zM207 241.5q0 -104.5 99.5 -164t236.5 -59.5q145 0 248.5 60.5t103.5 161.5q0 98 -102.5 160.5t-245.5 62.5q-158 0 -249 -58.5t-91 -163zM434 1311q0 20 23 20q12 0 20 -12l152 -223q6 -10 6 -17q0 -20 -23 -20q-10 0 -18 10l-154 223 q-6 13 -6 19z" />
<glyph unicode="&#xe1;" horiz-adv-x="1124" d="M154 242q0 125 108.5 194.5t282.5 69.5q111 0 208 -39t142 -102v165q0 336 -344 336q-166 0 -297 -65q-16 -8 -25 -8q-25 0 -24 24q0 10 16 21q133 76 332 75q188 0 291.5 -100t103.5 -283v-520q0 -27 -26.5 -26.5t-26.5 26.5v109q-47 -68 -140 -106t-210 -38 q-162 0 -276.5 73t-114.5 194zM207 241.5q0 -104.5 99.5 -164t236.5 -59.5q145 0 248.5 60.5t103.5 161.5q0 98 -102.5 160.5t-245.5 62.5q-158 0 -249 -58.5t-91 -163zM512 1079q0 6 6 17l152 223q8 12 20 12q23 0 23 -20q0 -6 -6 -19l-154 -223q-8 -10 -18 -10 q-23 0 -23 20z" />
<glyph unicode="&#xe2;" horiz-adv-x="1124" d="M154 242q0 125 108.5 194.5t282.5 69.5q111 0 208 -39t142 -102v165q0 336 -344 336q-166 0 -297 -65q-16 -8 -25 -8q-25 0 -24 24q0 10 16 21q133 76 332 75q188 0 291.5 -100t103.5 -283v-520q0 -27 -26.5 -26.5t-26.5 26.5v109q-47 -68 -140 -106t-210 -38 q-162 0 -276.5 73t-114.5 194zM207 241.5q0 -104.5 99.5 -164t236.5 -59.5q145 0 248.5 60.5t103.5 161.5q0 98 -102.5 160.5t-245.5 62.5q-158 0 -249 -58.5t-91 -163zM332 1079q0 8 10 19l188 178q14 14 26.5 14t27.5 -14l188 -178q10 -10 10 -18.5t-7 -15.5t-15 -7t-12 4 l-191 180l-190 -180q-4 -4 -12.5 -4t-15.5 7t-7 15z" />
<glyph unicode="&#xe3;" horiz-adv-x="1124" d="M154 242q0 125 108.5 194.5t282.5 69.5q111 0 208 -39t142 -102v165q0 336 -344 336q-166 0 -297 -65q-16 -8 -25 -8q-25 0 -24 24q0 10 16 21q133 76 332 75q188 0 291.5 -100t103.5 -283v-520q0 -27 -26.5 -26.5t-26.5 26.5v109q-47 -68 -140 -106t-210 -38 q-162 0 -276.5 73t-114.5 194zM207 241.5q0 -104.5 99.5 -164t236.5 -59.5q145 0 248.5 60.5t103.5 161.5q0 98 -102.5 160.5t-245.5 62.5q-158 0 -249 -58.5t-91 -163zM289 1104q0 10 6 18q72 92 143 92q16 0 30.5 -2t29 -9t21.5 -10t25.5 -14.5t24.5 -15.5q63 -39 105 -39 q51 0 108 74q8 12 23 12q20 0 20 -18q0 -8 -8 -21q-25 -31 -40 -46t-42.5 -30.5t-58.5 -15.5q-49 0 -127 45q-10 6 -27.5 17.5t-26 15.5t-23.5 8t-32 4q-55 0 -106 -71q-10 -12 -23 -13q-22 1 -22 19z" />
<glyph unicode="&#xe4;" horiz-adv-x="1124" d="M154 242q0 125 108.5 194.5t282.5 69.5q111 0 208 -39t142 -102v165q0 336 -344 336q-166 0 -297 -65q-16 -8 -25 -8q-25 0 -24 24q0 10 16 21q133 76 332 75q188 0 291.5 -100t103.5 -283v-520q0 -27 -26.5 -26.5t-26.5 26.5v109q-47 -68 -140 -106t-210 -38 q-162 0 -276.5 73t-114.5 194zM207 241.5q0 -104.5 99.5 -164t236.5 -59.5q145 0 248.5 60.5t103.5 161.5q0 98 -102.5 160.5t-245.5 62.5q-158 0 -249 -58.5t-91 -163zM373 1150.5q0 20.5 14 36t36.5 15.5t37 -15.5t14.5 -36t-14.5 -35.5t-37 -15t-36.5 15t-14 35.5z M678 1150.5q0 20.5 15.5 36t36 15.5t35.5 -15.5t15 -36t-15 -35.5t-35.5 -15t-36 15t-15.5 35.5z" />
<glyph unicode="&#xe5;" horiz-adv-x="1124" d="M154 242q0 125 108.5 194.5t282.5 69.5q111 0 208 -39t142 -102v165q0 336 -344 336q-166 0 -297 -65q-16 -8 -25 -8q-25 0 -24 24q0 10 16 21q133 76 332 75q188 0 291.5 -100t103.5 -283v-520q0 -27 -26.5 -26.5t-26.5 26.5v109q-47 -68 -140 -106t-210 -38 q-162 0 -276.5 73t-114.5 194zM207 241.5q0 -104.5 99.5 -164t236.5 -59.5q145 0 248.5 60.5t103.5 161.5q0 98 -102.5 160.5t-245.5 62.5q-158 0 -249 -58.5t-91 -163zM438 1165.5q0 55.5 38 94t95.5 38.5t95.5 -38.5t38 -94t-38 -94.5t-95.5 -39t-95.5 39t-38 94.5z M481 1165q0 -41 25.5 -67.5t64.5 -26.5t65 26.5t26 67.5t-26 68t-65 27t-64.5 -27t-25.5 -68z" />
<glyph unicode="&#xe6;" horiz-adv-x="1904" d="M154 242q0 123 108.5 193.5t282.5 70.5q111 0 208 -39t142 -102v165q0 336 -344 336q-166 0 -297 -65q-16 -8 -25 -8q-25 0 -24 24q0 10 16 21q133 76 332 75q156 0 255 -72.5t126 -207.5q49 127 161.5 203.5t252.5 76.5q188 0 316 -133t128 -319q0 -25 -27 -25h-815 q0 -172 119 -292.5t295 -120.5q227 0 352 196q8 12 21 12q27 0 26 -24q0 -10 -6 -19q-63 -98 -165.5 -155.5t-227.5 -57.5q-141 0 -254 73t-170 190q-4 -117 -112.5 -190t-282.5 -73q-162 0 -276.5 73t-114.5 194zM207 241.5q0 -104.5 99.5 -164t236.5 -59.5q150 0 251 60.5 t101 161.5q0 98 -102.5 160.5t-245.5 62.5q-158 0 -249 -58.5t-91 -163zM952 483h789q-6 156 -120 270.5t-273 114.5q-162 0 -274 -110.5t-122 -274.5z" />
<glyph unicode="&#xe7;" horiz-adv-x="1112" d="M123 444q0 197 133 333t336 136q123 0 226.5 -57t166.5 -156q8 -12 8 -22q0 -23 -24 -23q-14 0 -25 15q-127 195 -352 194q-180 0 -298 -123t-118 -297t118 -296.5t298 -122.5q225 0 352 194q10 14 25 14q25 0 24 -22q0 -10 -8 -23q-131 -201 -373 -213l-57 -112 q33 8 78 8q74 0 122 -33t48 -100q0 -61 -48 -99t-134 -38q-80 0 -156 30q-16 6 -16 23q0 12 10 19.5t24 0.5q72 -29 138 -28q131 0 131 90q0 92 -131 92q-45 0 -86 -8q-10 -2 -17 -2q-23 0 -22 18q0 6 4 14l63 127q-193 8 -316.5 142.5t-123.5 324.5z" />
<glyph unicode="&#xe8;" horiz-adv-x="1132" d="M123 444q0 199 129 334t323 135q188 0 316.5 -133t128.5 -319q0 -25 -27 -25h-815q0 -172 119 -292.5t295 -120.5q227 0 352 196q8 12 21 12q27 0 26 -24q0 -10 -6 -19q-63 -98 -165.5 -155.5t-227.5 -57.5q-205 0 -337 136t-132 333zM180 483h789q-6 156 -120 270.5 t-274 114.5q-162 0 -273.5 -110.5t-121.5 -274.5zM446 1311q0 20 23 20q12 0 20 -12l152 -223q6 -10 6 -17q0 -20 -22 -20q-10 0 -19 10l-153 223q-7 13 -7 19z" />
<glyph unicode="&#xe9;" horiz-adv-x="1132" d="M123 444q0 199 129 334t323 135q188 0 316.5 -133t128.5 -319q0 -25 -27 -25h-815q0 -172 119 -292.5t295 -120.5q227 0 352 196q8 12 21 12q27 0 26 -24q0 -10 -6 -19q-63 -98 -165.5 -155.5t-227.5 -57.5q-205 0 -337 136t-132 333zM180 483h789q-6 156 -120 270.5 t-274 114.5q-162 0 -273.5 -110.5t-121.5 -274.5zM489 1079q0 6 7 17l151 223q8 12 21 12q23 0 22 -20q0 -6 -6 -19l-154 -223q-8 -10 -18 -10q-23 0 -23 20z" />
<glyph unicode="&#xea;" horiz-adv-x="1132" d="M123 444q0 199 129 334t323 135q188 0 316.5 -133t128.5 -319q0 -25 -27 -25h-815q0 -172 119 -292.5t295 -120.5q227 0 352 196q8 12 21 12q27 0 26 -24q0 -10 -6 -19q-63 -98 -165.5 -155.5t-227.5 -57.5q-205 0 -337 136t-132 333zM180 483h789q-6 156 -120 270.5 t-274 114.5q-162 0 -273.5 -110.5t-121.5 -274.5zM356 1079q0 8 11 19l188 178q14 14 26.5 14t26.5 -14l189 -178q10 -10 10 -18.5t-7 -15.5t-15.5 -7t-12.5 4l-190 180l-191 -180q-4 -4 -12 -4t-15.5 7t-7.5 15z" />
<glyph unicode="&#xeb;" horiz-adv-x="1132" d="M123 444q0 199 129 334t323 135q188 0 316.5 -133t128.5 -319q0 -25 -27 -25h-815q0 -172 119 -292.5t295 -120.5q227 0 352 196q8 12 21 12q27 0 26 -24q0 -10 -6 -19q-63 -98 -165.5 -155.5t-227.5 -57.5q-205 0 -337 136t-132 333zM180 483h789q-6 156 -120 270.5 t-274 114.5q-162 0 -273.5 -110.5t-121.5 -274.5zM375 1150.5q0 20.5 15.5 36t35.5 15.5t35.5 -15.5t15.5 -36t-15.5 -35.5t-35.5 -15t-35.5 15t-15.5 35.5zM680 1150.5q0 20.5 14.5 36t37 15.5t36.5 -15.5t14 -36t-14 -35.5t-36.5 -15t-37 15t-14.5 35.5z" />
<glyph unicode="&#xec;" d="M43 1311q0 20 23 20q12 0 20 -12l152 -223q6 -10 6 -17q0 -20 -23 -20q-10 0 -18 10l-154 223q-6 13 -6 19zM184 10v869q0 27 27 26.5t27 -26.5v-869q0 -27 -27 -27t-27 27z" />
<glyph unicode="&#xed;" d="M168 1079q0 6 6 17l152 223q8 12 20 12q23 0 23 -20q0 -6 -7 -19l-153 -223q-8 -10 -19 -10q-22 0 -22 20zM184 10v869q0 27 27 26.5t27 -26.5v-869q0 -27 -27 -27t-27 27z" />
<glyph unicode="&#xee;" d="M-14 1079q0 8 10 19l188 178q14 14 26.5 14t27.5 -14l188 -178q10 -10 10 -18.5t-7 -15.5t-15 -7t-13 4l-190 180l-191 -180q-4 -4 -12 -4t-15 7t-7 15zM184 10v869q0 27 27 26.5t27 -26.5v-869q0 -27 -27 -27t-27 27z" />
<glyph unicode="&#xef;" d="M8 1150.5q0 20.5 14.5 36t37 15.5t37 -15.5t14.5 -36t-14.5 -35.5t-37 -15t-37 15t-14.5 35.5zM184 10v869q0 27 27 26.5t27 -26.5v-869q0 -27 -27 -27t-27 27zM313 1150.5q0 20.5 15.5 36t36 15.5t36 -15.5t15.5 -36t-15.5 -35.5t-36 -15t-36 15t-15.5 35.5z" />
<glyph unicode="&#xf0;" horiz-adv-x="1136" d="M133 410q0 188 124 310t308 122q131 0 231.5 -62.5t153.5 -175.5q-16 164 -86.5 308.5t-165.5 234.5l-157 -131q-8 -8 -19 -8q-20 0 -20 20q0 8 10 19l158 129q-109 106 -264 174q-14 6 -15 18q0 20 19 21q12 0 28 -9q160 -68 269 -176l118 99q10 8 21 8q16 0 18 -17 q0 -12 -14 -24l-115 -94q274 -274 275 -740q0 -199 -120 -330t-321 -131q-182 0 -309 125.5t-127 309.5zM186 410q0 -168 111 -277.5t272 -109.5q174 0 279.5 108.5t105.5 278.5q0 164 -113.5 274.5t-275.5 110.5q-164 0 -271.5 -108.5t-107.5 -276.5z" />
<glyph unicode="&#xf1;" horiz-adv-x="1181" d="M184 10v869q0 27 27 26.5t27 -26.5v-195q51 111 152.5 170t219.5 59q184 0 291 -110.5t107 -288.5v-504q0 -27 -27 -26.5t-27 26.5v506q0 158 -91 252t-253 94q-152 0 -262 -102.5t-110 -253.5v-496q0 -27 -27 -27t-27 27zM326 1104q0 10 6 18q72 92 143 92q16 0 30.5 -2 t29 -9t21.5 -10t25.5 -14.5t24.5 -15.5q63 -39 105 -39q51 0 108 74q8 12 23 12q20 0 20 -18q0 -8 -8 -21q-25 -31 -40 -46t-43 -30.5t-58 -15.5q-49 0 -127 45q-10 6 -27.5 17.5t-26 15.5t-23.5 8t-32 4q-55 0 -106 -71q-10 -12 -23 -13q-22 1 -22 19z" />
<glyph unicode="&#xf2;" horiz-adv-x="1183" d="M123 444.5q0 196.5 134 332.5t335 136t335 -136t134 -332.5t-134 -333t-335 -136.5t-335 136.5t-134 333zM176 444.5q0 -178.5 119 -299t297 -120.5t297 120.5t119 299t-119 299t-297 120.5t-297 -120.5t-119 -299zM446 1311q0 20 23 20q12 0 20 -12l152 -223 q6 -10 6 -17q0 -20 -22 -20q-10 0 -19 10l-153 223q-7 13 -7 19z" />
<glyph unicode="&#xf3;" horiz-adv-x="1183" d="M123 444.5q0 196.5 134 332.5t335 136t335 -136t134 -332.5t-134 -333t-335 -136.5t-335 136.5t-134 333zM176 444.5q0 -178.5 119 -299t297 -120.5t297 120.5t119 299t-119 299t-297 120.5t-297 -120.5t-119 -299zM526 1079q0 6 6 17l152 223q8 12 21 12q23 0 22 -20 q0 -6 -6 -19l-154 -223q-8 -10 -18 -10q-23 0 -23 20z" />
<glyph unicode="&#xf4;" horiz-adv-x="1183" d="M123 444.5q0 196.5 134 332.5t335 136t335 -136t134 -332.5t-134 -333t-335 -136.5t-335 136.5t-134 333zM176 444.5q0 -178.5 119 -299t297 -120.5t297 120.5t119 299t-119 299t-297 120.5t-297 -120.5t-119 -299zM367 1079q0 8 10 19l188 178q14 14 26.5 14t26.5 -14 l189 -178q10 -10 10 -18.5t-7 -15.5t-15.5 -7t-12.5 4l-190 180l-191 -180q-4 -4 -12 -4t-15 7t-7 15z" />
<glyph unicode="&#xf5;" horiz-adv-x="1183" d="M123 444.5q0 196.5 134 332.5t335 136t335 -136t134 -332.5t-134 -333t-335 -136.5t-335 136.5t-134 333zM176 444.5q0 -178.5 119 -299t297 -120.5t297 120.5t119 299t-119 299t-297 120.5t-297 -120.5t-119 -299zM330 1104q0 10 6 18q72 92 143 92q16 0 30.5 -2t29 -9 t21.5 -10t25.5 -14.5t24.5 -15.5q63 -39 105 -39q51 0 108 74q8 12 23 12q20 0 20 -18q0 -8 -8 -21q-25 -31 -40 -46t-42.5 -30.5t-58.5 -15.5q-49 0 -127 45q-10 6 -27.5 17.5t-26 15.5t-23.5 8t-32 4q-55 0 -106 -71q-10 -12 -23 -13q-22 1 -22 19z" />
<glyph unicode="&#xf6;" horiz-adv-x="1183" d="M123 444.5q0 196.5 134 332.5t335 136t335 -136t134 -332.5t-134 -333t-335 -136.5t-335 136.5t-134 333zM176 444.5q0 -178.5 119 -299t297 -120.5t297 120.5t119 299t-119 299t-297 120.5t-297 -120.5t-119 -299zM389 1150.5q0 20.5 14.5 36t37 15.5t37 -15.5t14.5 -36 t-14.5 -35.5t-37 -15t-37 15t-14.5 35.5zM694 1150.5q0 20.5 15.5 36t36 15.5t36 -15.5t15.5 -36t-15.5 -35.5t-36 -15t-36 15t-15.5 35.5z" />
<glyph unicode="&#xf7;" horiz-adv-x="1249" d="M164 661.5q0 24.5 24 24.5h873q25 0 24.5 -24.5t-24.5 -24.5h-873q-24 0 -24 24.5zM569 307.5q0 22.5 16.5 38.5t39 16t39 -16t16.5 -38.5t-16.5 -39t-39 -16.5t-39 16.5t-16.5 39zM569 1015.5q0 22.5 16.5 39t39 16.5t39 -16.5t16.5 -39t-16.5 -38.5t-39 -16t-39 16 t-16.5 38.5z" />
<glyph unicode="&#xf8;" horiz-adv-x="1183" d="M123 -106q0 8 6 16l147 182q-154 137 -153 352q0 197 134 333t335 136q158 0 280 -90l150 185q8 8 18 8q20 0 21 -21q0 -8 -6 -16l-150 -182q156 -139 156 -353q0 -197 -134 -333t-335 -136q-160 0 -281 88l-147 -180q-8 -10 -21 -10q-20 1 -20 21zM176 444 q0 -193 133 -313l531 653q-111 80 -248 80q-178 0 -297 -121t-119 -299zM342 104q109 -80 250 -79q178 0 297 120.5t119 298.5q0 190 -134 314z" />
<glyph unicode="&#xf9;" horiz-adv-x="1181" d="M174 375v504q0 27 26.5 26.5t26.5 -26.5v-506q0 -158 91.5 -252t252.5 -94q152 0 262.5 102t110.5 254v496q0 27 26.5 26.5t26.5 -26.5v-869q0 -27 -26.5 -26.5t-26.5 26.5v195q-51 -111 -152.5 -170.5t-220.5 -59.5q-184 0 -290.5 111t-106.5 289zM453 1311q0 20 22 20 q12 0 21 -12l151 -223q6 -10 6 -17q0 -20 -22 -20q-10 0 -19 10l-153 223q-6 13 -6 19z" />
<glyph unicode="&#xfa;" horiz-adv-x="1181" d="M174 375v504q0 27 26.5 26.5t26.5 -26.5v-506q0 -158 91.5 -252t252.5 -94q152 0 262.5 102t110.5 254v496q0 27 26.5 26.5t26.5 -26.5v-869q0 -27 -26.5 -26.5t-26.5 26.5v195q-51 -111 -152.5 -170.5t-220.5 -59.5q-184 0 -290.5 111t-106.5 289zM530 1079q0 6 7 17 l151 223q8 12 21 12q23 0 22 -20q0 -6 -6 -19l-154 -223q-8 -10 -18 -10q-23 0 -23 20z" />
<glyph unicode="&#xfb;" horiz-adv-x="1181" d="M174 375v504q0 27 26.5 26.5t26.5 -26.5v-506q0 -158 91.5 -252t252.5 -94q152 0 262.5 102t110.5 254v496q0 27 26.5 26.5t26.5 -26.5v-869q0 -27 -26.5 -26.5t-26.5 26.5v195q-51 -111 -152.5 -170.5t-220.5 -59.5q-184 0 -290.5 111t-106.5 289zM371 1079q0 8 10 19 l188 178q14 14 26.5 14t27.5 -14l188 -178q10 -10 10 -18.5t-7 -15.5t-15 -7t-13 4l-190 180l-190 -180q-4 -4 -12.5 -4t-15.5 7t-7 15z" />
<glyph unicode="&#xfc;" horiz-adv-x="1181" d="M174 375v504q0 27 26.5 26.5t26.5 -26.5v-506q0 -158 91.5 -252t252.5 -94q152 0 262.5 102t110.5 254v496q0 27 26.5 26.5t26.5 -26.5v-869q0 -27 -26.5 -26.5t-26.5 26.5v195q-51 -111 -152.5 -170.5t-220.5 -59.5q-184 0 -290.5 111t-106.5 289zM391 1150.5 q0 20.5 15.5 36t36 15.5t36 -15.5t15.5 -36t-15.5 -35.5t-36 -15t-36 15t-15.5 35.5zM696 1150.5q0 20.5 14.5 36t37 15.5t37 -15.5t14.5 -36t-14.5 -35.5t-37 -15t-37 15t-14.5 35.5z" />
<glyph unicode="&#xfd;" horiz-adv-x="933" d="M66 883q0 23 24 22q16 0 25 -18l360 -821l361 821q8 18 24 18q25 0 25 -22q0 -4 -4 -17l-381 -866q-139 -317 -387 -395q-12 -4 -21 -4q-25 0 -24 24q0 20 24 27q121 35 203 122t151 232l-376 860q-4 13 -4 17zM432 1079q0 6 6 17l152 223q8 12 20 12q23 0 23 -20 q0 -6 -6 -19l-154 -223q-8 -10 -18 -10q-23 0 -23 20z" />
<glyph unicode="&#xfe;" horiz-adv-x="1241" d="M184 -373v1727q0 27 27 26.5t27 -26.5v-699q61 123 168.5 190.5t246.5 67.5q199 0 334 -134t135 -334.5t-135 -335t-334 -134.5q-139 0 -246.5 68t-168.5 190v-606q0 -27 -27 -27t-27 27zM238 444.5q0 -180.5 120.5 -300t294.5 -119.5q176 0 296 118.5t120 301t-120 301 t-296 118.5q-174 0 -294.5 -119.5t-120.5 -300z" />
<glyph unicode="&#xff;" horiz-adv-x="933" d="M66 883q0 23 24 22q16 0 25 -18l360 -821l361 821q8 18 24 18q25 0 25 -22q0 -4 -4 -17l-381 -866q-139 -317 -387 -395q-12 -4 -21 -4q-25 0 -24 24q0 20 24 27q121 35 203 122t151 232l-376 860q-4 13 -4 17zM272 1150.5q0 20.5 15.5 36t36 15.5t36 -15.5t15.5 -36 t-15.5 -35.5t-36 -15t-36 15t-15.5 35.5zM578 1150.5q0 20.5 14 36t36.5 15.5t37 -15.5t14.5 -36t-14.5 -35.5t-37 -15t-36.5 15t-14 35.5z" />
<glyph unicode="&#x152;" horiz-adv-x="2422" d="M135 682q0 184 81 344t237.5 261.5t357.5 101.5q221 0 390 -126t233 -319v393q0 27 26 27h811q25 0 25 -24.5t-25 -24.5h-784v-565h444q25 0 25 -25t-25 -25h-444v-651h813q25 0 24.5 -24.5t-24.5 -24.5h-840q-27 0 -26 27v391q-72 -190 -238 -316.5t-385 -126.5 q-201 0 -357.5 101.5t-237.5 261.5t-81 344zM188 682q0 -264 172 -460.5t451 -196.5t451 196.5t172 460.5t-172 460.5t-451 196.5t-451 -196.5t-172 -460.5z" />
<glyph unicode="&#x153;" horiz-adv-x="2017" d="M123 444.5q0 196.5 134 332.5t335 136q156 0 273.5 -86t166.5 -229q43 141 160 228t268 87q188 0 316.5 -133t128.5 -319q0 -25 -27 -25h-815q0 -172 117.5 -292.5t296.5 -120.5q227 0 352 196q8 12 20 12q27 0 27 -24q0 -10 -6 -19q-63 -98 -165.5 -155.5t-227.5 -57.5 q-158 0 -280 90.5t-163 225.5q-43 -139 -164.5 -227.5t-277.5 -88.5q-201 0 -335 136.5t-134 333zM176 444.5q0 -178.5 119 -299t297 -120.5t297 120.5t119 299t-119 299t-297 120.5t-297 -120.5t-119 -299zM1065 483h788q-6 156 -119.5 270.5t-273.5 114.5 q-162 0 -273.5 -110.5t-121.5 -274.5z" />
<glyph unicode="&#x178;" horiz-adv-x="1208" d="M66 1356q0 25 22 24q14 0 27 -14l489 -721l490 721q12 14 26 14q23 0 23 -24q0 -8 -6 -17l-506 -741v-588q0 -27 -26.5 -26.5t-26.5 26.5v588l-506 741q-6 9 -6 17zM381 1613.5q0 20.5 14.5 36t37 15.5t36.5 -15.5t14 -36t-14 -35.5t-36.5 -15t-37 15t-14.5 35.5z M727 1613.5q0 20.5 15.5 36t36 15.5t35.5 -15.5t15 -36t-15 -35.5t-35.5 -15t-36 15t-15.5 35.5z" />
<glyph unicode="&#x2c6;" horiz-adv-x="737" d="M143 1079q0 8 11 19l188 178q14 14 26.5 14t26.5 -14l189 -178q10 -10 10 -18.5t-7 -15.5t-15.5 -7t-12.5 4l-190 180l-191 -180q-4 -4 -12 -4t-15.5 7t-7.5 15z" />
<glyph unicode="&#x2dc;" horiz-adv-x="823" d="M143 1104q0 10 7 18q72 92 143 92q16 0 30.5 -2t29 -9t21.5 -10t25.5 -14.5t24.5 -15.5q63 -39 104 -39q51 0 109 74q10 12 22 12q20 0 21 -18q0 -8 -8 -21q-25 -31 -40.5 -46t-43 -30.5t-58.5 -15.5q-47 0 -127 45q-10 6 -27.5 17.5t-25.5 15.5t-23.5 8t-31.5 4 q-55 0 -107 -71q-8 -12 -22 -13q-23 1 -23 19z" />
<glyph unicode="&#x2000;" horiz-adv-x="864" />
<glyph unicode="&#x2001;" horiz-adv-x="1730" />
<glyph unicode="&#x2002;" horiz-adv-x="864" />
<glyph unicode="&#x2003;" horiz-adv-x="1730" />
<glyph unicode="&#x2004;" horiz-adv-x="575" />
<glyph unicode="&#x2005;" horiz-adv-x="432" />
<glyph unicode="&#x2006;" horiz-adv-x="286" />
<glyph unicode="&#x2007;" horiz-adv-x="286" />
<glyph unicode="&#x2008;" horiz-adv-x="215" />
<glyph unicode="&#x2009;" horiz-adv-x="346" />
<glyph unicode="&#x200a;" horiz-adv-x="94" />
<glyph unicode="&#x2010;" horiz-adv-x="878" d="M164 507.5q0 22.5 22 22.5h506q23 0 23 -22.5t-23 -22.5h-506q-22 0 -22 22.5z" />
<glyph unicode="&#x2011;" horiz-adv-x="878" d="M164 507.5q0 22.5 22 22.5h506q23 0 23 -22.5t-23 -22.5h-506q-22 0 -22 22.5z" />
<glyph unicode="&#x2012;" horiz-adv-x="878" d="M164 507.5q0 22.5 22 22.5h506q23 0 23 -22.5t-23 -22.5h-506q-22 0 -22 22.5z" />
<glyph unicode="&#x2013;" horiz-adv-x="1083" d="M164 507.5q0 22.5 22 22.5h711q23 0 23 -22.5t-23 -22.5h-711q-22 0 -22 22.5z" />
<glyph unicode="&#x2014;" horiz-adv-x="1472" d="M164 507.5q0 22.5 22 22.5h1100q23 0 23 -22.5t-23 -22.5h-1100q-22 0 -22 22.5z" />
<glyph unicode="&#x2018;" horiz-adv-x="411" d="M174 924v94q0 201 68 346q8 16 22 16q25 0 25 -20q0 -8 -6 -21q-63 -129 -64 -319v-96q0 -25 -22.5 -25t-22.5 25z" />
<glyph unicode="&#x2019;" horiz-adv-x="411" d="M143 920q0 8 7 20q63 129 63 320v96q0 25 22.5 24.5t22.5 -24.5v-94q0 -201 -68 -347q-8 -16 -22 -16q-25 1 -25 21z" />
<glyph unicode="&#x201a;" d="M123 -303q0 8 6 20q63 129 64 320v96q0 25 22.5 25t22.5 -25v-94q0 -201 -68 -346q-8 -16 -23 -17q-24 1 -24 21z" />
<glyph unicode="&#x201c;" horiz-adv-x="733" d="M174 924v94q0 201 68 346q8 16 22 16q25 0 25 -20q0 -8 -6 -21q-63 -129 -64 -319v-96q0 -25 -22.5 -25t-22.5 25zM496 924v94q0 201 67 346q8 16 23 16q25 0 24 -20q0 -8 -6 -21q-63 -129 -63 -319v-96q0 -25 -22.5 -25t-22.5 25z" />
<glyph unicode="&#x201d;" horiz-adv-x="733" d="M143 920q0 8 7 20q63 129 63 320v96q0 25 22.5 24.5t22.5 -24.5v-94q0 -201 -68 -347q-8 -16 -22 -16q-25 1 -25 21zM465 920q0 8 6 20q63 129 64 320v96q0 25 22.5 24.5t22.5 -24.5v-94q0 -201 -68 -347q-8 -16 -23 -16q-24 1 -24 21z" />
<glyph unicode="&#x201e;" horiz-adv-x="743" d="M123 -303q0 8 6 20q63 129 64 320v96q0 25 22.5 25t22.5 -25v-94q0 -201 -68 -346q-8 -16 -23 -17q-24 1 -24 21zM444 -303q0 8 7 20q63 129 63 320v96q0 25 22.5 25t22.5 -25v-94q0 -201 -67 -346q-8 -16 -23 -17q-25 1 -25 21z" />
<glyph unicode="&#x2022;" horiz-adv-x="774" d="M174 661.5q0 88.5 62.5 150.5t150.5 62t150.5 -62t62.5 -150.5t-62.5 -150.5t-150.5 -62t-150.5 62t-62.5 150.5z" />
<glyph unicode="&#x2026;" horiz-adv-x="1388" d="M205 18v113q0 27 26.5 27t26.5 -27v-113q0 -27 -26.5 -27t-26.5 27zM668 18v113q0 27 26.5 27t26.5 -27v-113q0 -27 -26.5 -27t-26.5 27zM1130 18v113q0 27 27 27t27 -27v-113q0 -27 -27 -27t-27 27z" />
<glyph unicode="&#x202f;" horiz-adv-x="346" />
<glyph unicode="&#x2039;" horiz-adv-x="712" d="M143 436q0 10 7 17l346 340q8 8 18 8q25 0 25 -23q0 -10 -9 -18l-329 -324l329 -323q8 -8 9 -19q0 -23 -25 -22q-10 0 -18 8l-346 340q-7 6 -7 16z" />
<glyph unicode="&#x203a;" horiz-adv-x="712" d="M174 94q0 10 8 19l330 323l-330 324q-8 8 -8 18q0 23 25 23q10 0 18 -8l346 -340q6 -6 6 -16.5t-6 -16.5l-346 -340q-8 -8 -18 -8q-25 -1 -25 22z" />
<glyph unicode="&#x205f;" horiz-adv-x="432" />
<glyph unicode="&#x20ac;" horiz-adv-x="1480" d="M113 524.5q0 22.5 22 22.5h172q-8 57 -8 135q0 76 8 135h-172q-23 0 -22.5 22.5t22.5 22.5h180q43 229 185.5 378t359.5 149q303 0 463 -299q4 -8 4 -17q0 -25 -24 -24q-14 0 -23 12q-152 279 -420 278q-193 0 -319.5 -135t-169.5 -342h424q23 0 22.5 -22.5t-22.5 -22.5 h-433q-10 -76 -10 -135q0 -63 10 -135h433q23 0 22.5 -22.5t-22.5 -22.5h-424q43 -209 170 -343t319 -134q268 0 420 278q8 12 23 12q25 0 24 -24q0 -8 -4 -17q-160 -299 -463 -299q-217 0 -359.5 148.5t-185.5 378.5h-180q-22 0 -22 22.5z" />
<glyph unicode="&#x2122;" horiz-adv-x="1538" d="M133 1346q0 18 21 18h460q20 0 21 -18q0 -20 -21 -21h-208v-551q0 -20 -21 -20q-23 0 -23 20v551h-208q-21 1 -21 21zM762 774v578q0 20 20 20q12 0 23 -18l258 -541l258 541q10 18 22 18q20 0 21 -20v-578q0 -20 -20.5 -20t-20.5 20v488l-238 -492q-8 -16 -22 -16 t-23 16l-237 492v-488q0 -20 -20.5 -20t-20.5 20z" />
<glyph unicode="&#xe000;" horiz-adv-x="905" d="M0 905h905v-905h-905v905z" />
<glyph unicode="&#xfb01;" horiz-adv-x="1038" d="M61 866.5q0 22.5 23 22.5h141v164q0 172 73 245.5t243 73.5h43q23 0 22.5 -22.5t-22.5 -22.5h-47q-139 0 -198.5 -58.5t-59.5 -217.5v-162h292q23 0 23 -22.5t-23 -22.5h-292v-834q0 -27 -27 -26.5t-27 26.5v834h-141q-23 0 -23 22.5zM801 10v869q0 27 26.5 26.5 t26.5 -26.5v-869q0 -27 -26.5 -27t-26.5 27zM801 1102v141q0 27 26.5 27t26.5 -27v-141q0 -27 -26.5 -27t-26.5 27z" />
<glyph unicode="&#xfb02;" horiz-adv-x="1038" d="M61 866.5q0 22.5 23 22.5h141v164q0 172 73 245.5t243 73.5h43q23 0 22.5 -22.5t-22.5 -22.5h-47q-139 0 -198.5 -58.5t-59.5 -217.5v-162h292q23 0 23 -22.5t-23 -22.5h-292v-834q0 -27 -27 -26.5t-27 26.5v834h-141q-23 0 -23 22.5zM801 10v1344q0 27 26.5 26.5 t26.5 -26.5v-1344q0 -27 -26.5 -27t-26.5 27z" />
<glyph unicode="&#xfb03;" horiz-adv-x="1654" d="M1417 10v869q0 27 27 26.5t27 -26.5v-869q0 -27 -27 -27t-27 27zM1417 1102v141q0 27 27 27t27 -27v-141q0 -27 -27 -27t-27 27zM677 866.5q0 22.5 23 22.5h141v164q0 172 73 245.5t243 73.5h43q23 0 22.5 -22.5t-22.5 -22.5h-47q-139 0 -198.5 -58.5t-59.5 -217.5v-162 h292q23 0 23 -22.5t-23 -22.5h-292v-834q0 -27 -27 -26.5t-27 26.5v834h-141q-23 0 -23 22.5zM61 866.5q0 22.5 23 22.5h141v164q0 172 73 245.5t243 73.5h43q23 0 22.5 -22.5t-22.5 -22.5h-47q-139 0 -198.5 -58.5t-59.5 -217.5v-162h292q23 0 23 -22.5t-23 -22.5h-292 v-834q0 -27 -27 -26.5t-27 26.5v834h-141q-23 0 -23 22.5z" />
<glyph unicode="&#xfb04;" horiz-adv-x="1654" d="M1417 10v1344q0 27 27 26.5t27 -26.5v-1344q0 -27 -27 -27t-27 27zM677 866.5q0 22.5 23 22.5h141v164q0 172 73 245.5t243 73.5h43q23 0 22.5 -22.5t-22.5 -22.5h-47q-139 0 -198.5 -58.5t-59.5 -217.5v-162h292q23 0 23 -22.5t-23 -22.5h-292v-834q0 -27 -27 -26.5 t-27 26.5v834h-141q-23 0 -23 22.5zM61 866.5q0 22.5 23 22.5h141v164q0 172 73 245.5t243 73.5h43q23 0 22.5 -22.5t-22.5 -22.5h-47q-139 0 -198.5 -58.5t-59.5 -217.5v-162h292q23 0 23 -22.5t-23 -22.5h-292v-834q0 -27 -27 -26.5t-27 26.5v834h-141q-23 0 -23 22.5z " />
</font>
</defs>
</svg>
